<?xml version="1.0" encoding="UTF-8"?>
<svg version="1.1" xmlns="http://www.w3.org/2000/svg" width="500" height="500">
<path d="M0 0 C0.73959961 0.12890625 1.47919922 0.2578125 2.24121094 0.390625 C34.69167517 6.22927579 65.14925773 18.83709695 92 38 C92.59554688 38.42265137 93.19109375 38.84530273 93.8046875 39.28076172 C101.08122719 44.47800636 101.08122719 44.47800636 104 47 C104 47.66 104 48.32 104 49 C104.86625 49.4021875 104.86625 49.4021875 105.75 49.8125 C108.05550043 51.02929189 110.02056192 52.30333879 112 54 C112 54.66 112 55.32 112 56 C112.66 56 113.32 56 114 56 C115.48046875 57.50390625 115.48046875 57.50390625 117.1875 59.5625 C120.18677493 63.10996174 123.33995132 66.36522872 126.71484375 69.5546875 C128 71 128 71 128 73 C128.66 73 129.32 73 130 73 C140.98159318 84.24462535 149.46689796 99.85033594 156 114 C156.58638281 115.21328533 157.1749769 116.4255041 157.765625 117.63671875 C170.70202052 144.38691047 177.45354512 172.26024398 178 202 C178.02835937 203.05832031 178.05671875 204.11664063 178.0859375 205.20703125 C178.12700824 208.14358883 178.07857559 211.06413027 178 214 C177.98743164 214.68932617 177.97486328 215.37865234 177.96191406 216.08886719 C177.24868969 250.51285996 166.74885738 281.68017763 151 312 C150.33070133 313.33201408 149.66282146 314.66475098 149 316 C148.34 316 147.68 316 147 316 C146.85304688 316.82564453 146.85304688 316.82564453 146.703125 317.66796875 C145.22210319 322.58002443 141.82291197 326.76264799 139 331 C138.25556641 332.12535156 138.25556641 332.12535156 137.49609375 333.2734375 C136.39008658 334.89117933 135.20312633 336.45312329 134 338 C133.34 338 132.68 338 132 338 C131.731875 338.57234375 131.46375 339.1446875 131.1875 339.734375 C129.95867364 342.07884634 128.57477824 344.12404938 127 346.25 C126.2265625 347.30960937 126.2265625 347.30960937 125.4375 348.390625 C124.963125 348.92171875 124.48875 349.4528125 124 350 C123.34 350 122.68 350 122 350 C122 350.66 122 351.32 122 352 C121.34 352 120.68 352 120 352 C119.731875 352.639375 119.46375 353.27875 119.1875 353.9375 C118 356 118 356 115 357 C115 357.66 115 358.32 115 359 C113.35546875 360.69140625 113.35546875 360.69140625 111.1875 362.5625 C110.47980469 363.18253906 109.77210938 363.80257813 109.04296875 364.44140625 C107 366 107 366 104 367 C104 367.66 104 368.32 104 369 C101.97561668 370.77550861 99.946804 372.4278444 97.8125 374.0625 C97.18190674 374.55057129 96.55131348 375.03864258 95.90161133 375.54150391 C87.02636373 382.35328136 77.98158227 388.89491594 68 394 C67.42910645 394.2976123 66.85821289 394.59522461 66.27001953 394.90185547 C58.32254106 399.03809712 50.39779664 402.82498072 41.96484375 405.89453125 C39.88083216 406.67157378 37.82676871 407.53146375 35.80078125 408.44921875 C31.10122968 410.48241279 26.1981554 411.72181612 21.25 413 C20.2408252 413.26127686 19.23165039 413.52255371 18.19189453 413.79174805 C8.86888922 416.1404536 -0.46039277 417.83340248 -10 419 C-11.06347656 419.13148438 -12.12695312 419.26296875 -13.22265625 419.3984375 C-45.22026312 422.51809878 -83.74241853 419.8934799 -113.125 405.75 C-116.31584453 404.24233721 -119.5089406 402.77042638 -122.76171875 401.40234375 C-134.79768702 396.32622842 -145.9850467 390.42341302 -156.6015625 382.734375 C-158.32618797 381.4872517 -160.07409849 380.27209854 -161.8359375 379.078125 C-162.75632812 378.45421875 -163.67671875 377.8303125 -164.625 377.1875 C-165.46289062 376.62417969 -166.30078125 376.06085938 -167.1640625 375.48046875 C-167.76992187 374.99191406 -168.37578125 374.50335938 -169 374 C-169 373.34 -169 372.68 -169 372 C-169.56203125 371.7421875 -170.1240625 371.484375 -170.703125 371.21875 C-173.26704579 369.85830223 -175.45226365 368.27211038 -177.75 366.5 C-178.54921875 365.8915625 -179.3484375 365.283125 -180.171875 364.65625 C-181.07679688 363.83640625 -181.07679688 363.83640625 -182 363 C-182 362.34 -182 361.68 -182 361 C-182.66 361 -183.32 361 -184 361 C-184 360.34 -184 359.68 -184 359 C-184.66 359 -185.32 359 -186 359 C-186 358.34 -186 357.68 -186 357 C-186.66 357 -187.32 357 -188 357 C-190.54711883 354.53754994 -192.73393136 351.72014728 -195 349 C-195.69609375 348.17886719 -196.3921875 347.35773438 -197.109375 346.51171875 C-209.35094951 331.86089819 -219.7707006 316.23382265 -228 299 C-228.43054688 298.11957031 -228.86109375 297.23914063 -229.3046875 296.33203125 C-252.49440945 247.45173499 -255.33141879 190.43048395 -237.5 139.375 C-236.36617185 136.23699157 -235.19553718 133.11497104 -234 130 C-233.55527344 128.83597656 -233.11054688 127.67195312 -232.65234375 126.47265625 C-229.9348275 119.68323463 -226.62697743 113.34299308 -223 107 C-222.31486385 105.79180291 -221.62998104 104.58346214 -220.9453125 103.375 C-218.9763385 99.9092108 -216.99733354 96.4495526 -215 93 C-214.46761719 92.03835937 -213.93523437 91.07671875 -213.38671875 90.0859375 C-212.92910156 89.39757812 -212.47148437 88.70921875 -212 88 C-211.34 88 -210.68 88 -210 88 C-209.79375 87.34 -209.5875 86.68 -209.375 86 C-207.50875748 81.92819814 -205.02438473 78.31203002 -202 75 C-201.34 75 -200.68 75 -200 75 C-199.690625 74.38125 -199.38125 73.7625 -199.0625 73.125 C-198.375 71.75 -197.6875 70.375 -197 69 C-196.34 69 -195.68 69 -195 69 C-195 68.34 -195 67.68 -195 67 C-194.34 67 -193.68 67 -193 67 C-192.77183594 66.44699219 -192.54367188 65.89398438 -192.30859375 65.32421875 C-187.47428539 56.73790987 -176.92355282 48.65968058 -169 43 C-168.34 43 -167.68 43 -167 43 C-167 42.34 -167 41.68 -167 41 C-165.43041992 39.67480469 -165.43041992 39.67480469 -163.23046875 38.171875 C-162.43020264 37.62249268 -161.62993652 37.07311035 -160.80541992 36.50708008 C-159.94150635 35.92724365 -159.07759277 35.34740723 -158.1875 34.75 C-157.30747314 34.15662842 -156.42744629 33.56325684 -155.52075195 32.9519043 C-146.0445287 26.61839087 -136.34419081 21.63131552 -126 16.875 C-125.08565186 16.45452393 -124.17130371 16.03404785 -123.22924805 15.60083008 C-85.6963519 -1.36434787 -40.68698615 -7.25778522 0 0 Z M-9.44921875 72.8046875 C-10.72249023 73.06185547 -10.72249023 73.06185547 -12.02148438 73.32421875 C-12.90126953 73.50597656 -13.78105469 73.68773438 -14.6875 73.875 C-15.54794922 74.04902344 -16.40839844 74.22304687 -17.29492188 74.40234375 C-21.98049494 75.35570074 -26.65350586 76.35543635 -31.3190918 77.40185547 C-34.83685467 78.18671286 -38.35783639 78.9567117 -41.87890625 79.7265625 C-42.5817424 79.88027313 -43.28457855 80.03398376 -44.00871277 80.19235229 C-46.19328167 80.67002442 -48.37788998 81.14751597 -50.5625 81.625 C-52.06315409 81.95311104 -53.56380516 82.28123593 -55.06445312 82.609375 C-58.70960052 83.40640968 -62.35478886 84.2032569 -66 85 C-66 85.99 -66 86.98 -66 88 C-65.34 88 -64.68 88 -64 88 C-64 88.66 -64 89.32 -64 90 C-63.34 90 -62.68 90 -62 90 C-62 90.66 -62 91.32 -62 92 C-60.28114683 93.73888091 -60.28114683 93.73888091 -58.125 95.5 C-56.00964496 97.28933258 -53.95980876 99.04019124 -52 101 C-52.29289619 104.80765051 -53.23070467 106.47151296 -56 109 C-56 109.66 -56 110.32 -56 111 C-56.66 111 -57.32 111 -58 111 C-58 111.66 -58 112.32 -58 113 C-58.66 113 -59.32 113 -60 113 C-60 113.66 -60 114.32 -60 115 C-60.66 115 -61.32 115 -62 115 C-62 115.66 -62 116.32 -62 117 C-62.66 117 -63.32 117 -64 117 C-64 117.66 -64 118.32 -64 119 C-65.485 119.495 -65.485 119.495 -67 120 C-67 120.66 -67 121.32 -67 122 C-67.66 122 -68.32 122 -69 122 C-69 122.66 -69 123.32 -69 124 C-69.66 124 -70.32 124 -71 124 C-71 124.66 -71 125.32 -71 126 C-71.66 126 -72.32 126 -73 126 C-73 126.66 -73 127.32 -73 128 C-73.66 128 -74.32 128 -75 128 C-75 128.66 -75 129.32 -75 130 C-75.66 130 -76.32 130 -77 130 C-77 130.66 -77 131.32 -77 132 C-78.485 132.495 -78.485 132.495 -80 133 C-80 133.66 -80 134.32 -80 135 C-80.66 135 -81.32 135 -82 135 C-82 135.66 -82 136.32 -82 137 C-82.66 137 -83.32 137 -84 137 C-84 137.66 -84 138.32 -84 139 C-84.66 139 -85.32 139 -86 139 C-86 139.66 -86 140.32 -86 141 C-86.66 141 -87.32 141 -88 141 C-88 141.66 -88 142.32 -88 143 C-88.66 143 -89.32 143 -90 143 C-90 143.66 -90 144.32 -90 145 C-90.66 145 -91.32 145 -92 145 C-92 145.66 -92 146.32 -92 147 C-93.485 147.495 -93.485 147.495 -95 148 C-95 148.66 -95 149.32 -95 150 C-95.66 150 -96.32 150 -97 150 C-97 150.66 -97 151.32 -97 152 C-97.66 152 -98.32 152 -99 152 C-99 152.66 -99 153.32 -99 154 C-99.66 154 -100.32 154 -101 154 C-101 154.66 -101 155.32 -101 156 C-101.66 156 -102.32 156 -103 156 C-103 156.66 -103 157.32 -103 158 C-103.66 158 -104.32 158 -105 158 C-105 158.66 -105 159.32 -105 160 C-109.77433282 161.59144427 -114.62464755 161.22610345 -119.625 161.25 C-121.20861328 161.2809375 -121.20861328 161.2809375 -122.82421875 161.3125 C-129.08860418 161.34355024 -135.42753928 161.21237933 -141 158 C-142.02835363 154.91493912 -142.13368434 152.7305728 -142.125 149.5 C-142.12757813 148.5409375 -142.13015625 147.581875 -142.1328125 146.59375 C-142 144 -142 144 -141 141 C-136.13138354 138.07883012 -131.87882797 137.97516771 -126.359375 138.2109375 C-106.90555749 139.57046389 -106.90555749 139.57046389 -90.11035156 131.61572266 C-85.41298197 126.81008987 -85.41298197 126.81008987 -83 121 C-90.2040588 120.89794853 -97.40792876 120.82826265 -104.61254883 120.78027344 C-107.0595598 120.7602517 -109.50652349 120.73302602 -111.95336914 120.69824219 C-115.48595907 120.64930837 -119.01791229 120.62693584 -122.55078125 120.609375 C-123.63144363 120.58872986 -124.71210602 120.56808472 -125.82551575 120.54681396 C-135.23233531 120.5440819 -144.19596499 122.42637083 -151.1875 129.125 C-152.29158203 130.14980469 -152.29158203 130.14980469 -153.41796875 131.1953125 C-155.21973191 132.85066686 -155.21973191 132.85066686 -155 135 C-155.66 135 -156.32 135 -157 135 C-164.07946869 146.40452114 -163.88495769 157.00613912 -163.796875 170.03125 C-163.80092614 172.15629474 -163.80675702 174.28133675 -163.81427002 176.40637207 C-163.82307168 180.84101057 -163.81040202 185.27491958 -163.78222656 189.70947266 C-163.74804322 195.36162651 -163.76775012 201.01207039 -163.80366135 206.66416168 C-163.82546021 211.04661683 -163.81838868 215.4286741 -163.80289459 219.81114197 C-163.79892442 221.89371448 -163.80368875 223.97632447 -163.81777191 226.05885315 C-163.88134696 238.09883841 -163.51944744 247.49763331 -157 258 C-156.34 258 -155.68 258 -155 258 C-154.7421875 258.5878125 -154.484375 259.175625 -154.21875 259.78125 C-149.87046956 267.69735028 -141.43188173 271.08724475 -133.19550514 273.53663254 C-130.60648037 274.08305341 -128.22212698 274.13221166 -125.57504272 274.14044189 C-123.92246964 274.14900711 -123.92246964 274.14900711 -122.23651123 274.15774536 C-120.43020233 274.15942215 -120.43020233 274.15942215 -118.58740234 274.16113281 C-117.31540985 274.16609772 -116.04341736 274.17106262 -114.73287964 274.17617798 C-111.2449535 274.1892808 -107.75704661 274.1957433 -104.26909971 274.20018864 C-102.08668098 274.203124 -99.90426745 274.20722977 -97.72185135 274.21169281 C-90.88426055 274.22536485 -84.04668171 274.2350318 -77.20907819 274.2388947 C-69.33401204 274.24336883 -61.45912003 274.26088784 -53.5841068 274.2898953 C-47.4862522 274.31157122 -41.38844637 274.3216022 -35.29055369 274.32293582 C-31.65393472 274.32398003 -28.01747951 274.32980482 -24.38090134 274.34775543 C-20.31681661 274.36742572 -16.25309207 274.36292371 -12.18896484 274.35644531 C-10.9969043 274.3656601 -9.80484375 274.37487488 -8.57666016 274.3843689 C4.06159926 274.32144896 13.82080962 271.0244139 23.0625 262.25 C25.21750771 260.2422843 25.21750771 260.2422843 25 258 C25.66 258 26.32 258 27 258 C27.639375 256.88625 28.27875 255.7725 28.9375 254.625 C29.29714844 253.99851562 29.65679687 253.37203125 30.02734375 252.7265625 C31.50282121 248.59048513 31.68515292 244.35950191 32 240 C30.86570557 239.98541748 29.73141113 239.97083496 28.56274414 239.95581055 C24.31878525 239.8974506 20.0753362 239.82022272 15.83178711 239.73754883 C14.00179372 239.70447569 12.17170263 239.67639001 10.34155273 239.65356445 C7.69733387 239.61969193 5.05399621 239.56736359 2.41015625 239.51171875 C1.60353043 239.50532883 0.7969046 239.4989389 -0.03416443 239.49235535 C-5.7964032 239.34615057 -10.63732179 238.08970745 -16 236 C-16 235.34 -16 234.68 -16 234 C-17.07122452 233.10486718 -18.18321025 232.25816398 -19.3125 231.4375 C-24.34709029 227.21822797 -25.57585787 222.67413116 -26.3125 216.29296875 C-26.66919612 208.32303992 -24.39302925 202.84593986 -20.25 196.1875 C-14.08837706 190.19703325 -6.74089215 188.85760141 1.5703125 188.71875 C2.40714569 188.70034058 3.24397888 188.68193115 4.10617065 188.66296387 C7.68865127 188.5842418 11.27131715 188.51634354 14.85400391 188.44775391 C17.46787213 188.39616752 20.08157173 188.33888124 22.6953125 188.28125 C23.51194366 188.26767456 24.32857483 188.25409912 25.16995239 188.2401123 C28.89053438 188.50763411 28.89053438 188.50763411 32 187 C32.12603031 184.45055959 32.18868826 181.92977847 32.203125 179.37890625 C32.20882507 178.60498032 32.21452515 177.83105438 32.22039795 177.03367615 C32.22986992 175.38680392 32.23639061 173.73991256 32.24023438 172.09301758 C32.24983994 169.60397633 32.28079814 167.11579674 32.3125 164.62695312 C32.38501703 153.81299594 32.14250578 143.75532966 25 135 C24.34 135 23.68 135 23 135 C22.74605469 134.40316406 22.49210938 133.80632812 22.23046875 133.19140625 C18.98174862 127.4055904 12.04978578 124.13521851 6 122 C5.01 122 4.02 122 3 122 C2.01 126.95 1.02 131.9 0 137 C1.19625 137.515625 2.3925 138.03125 3.625 138.5625 C8.86893879 141.18912653 12.90741144 144.87831841 14.875 150.5 C15.03314948 153.66298951 15 156.83305922 15 160 C-14.04 160.33 -43.08 160.66 -73 161 C-72.505 159.515 -72.505 159.515 -72 158 C-71.34 157.67 -70.68 157.34 -70 157 C-70 156.34 -70 155.68 -70 155 C-69.34 155 -68.68 155 -68 155 C-68 154.34 -68 153.68 -68 153 C-67.34 153 -66.68 153 -66 153 C-64.31267723 151.01739574 -62.64633943 149.0167658 -61 147 C-60.34 146.67 -59.68 146.34 -59 146 C-59 145.34 -59 144.68 -59 144 C-58.34 144 -57.68 144 -57 144 C-57 143.34 -57 142.68 -57 142 C-56.34 142 -55.68 142 -55 142 C-55 141.34 -55 140.68 -55 140 C-54.34 140 -53.68 140 -53 140 C-51.31267723 138.01739574 -49.64633943 136.0167658 -48 134 C-47.34 133.67 -46.68 133.34 -46 133 C-46 132.34 -46 131.68 -46 131 C-45.34 131 -44.68 131 -44 131 C-44 130.34 -44 129.68 -44 129 C-43.34 129 -42.68 129 -42 129 C-42 128.34 -42 127.68 -42 127 C-41.34 127 -40.68 127 -40 127 C-38.2856382 125.04072937 -36.61594832 123.04119788 -35 121 C-31.43442842 121.57458438 -29.78900304 122.85355648 -27.3125 125.4375 C-26.71050781 126.05496094 -26.10851562 126.67242187 -25.48828125 127.30859375 C-24 129 -24 129 -23 131 C-22.34 131 -21.68 131 -21 131 C-21 131.66 -21 132.32 -21 133 C-19.44144019 134.35712166 -19.44144019 134.35712166 -17.5 135.625 C-16.52546875 136.29402344 -16.52546875 136.29402344 -15.53125 136.9765625 C-15.0259375 137.31429687 -14.520625 137.65203125 -14 138 C-13.34 137.67 -12.68 137.34 -12 137 C-11.22817042 134.17944516 -11.22817042 134.17944516 -10.66796875 130.7109375 C-10.55106689 130.06387848 -10.43416504 129.41681946 -10.3137207 128.75015259 C-10.06211943 127.35411038 -9.81433085 125.95737685 -9.56991577 124.56005859 C-8.92913792 120.89876308 -8.26132206 117.24242725 -7.59375 113.5859375 C-7.3941291 112.48798859 -7.3941291 112.48798859 -7.19047546 111.36785889 C-5.83164697 103.95734432 -4.23939387 96.60372732 -2.5612793 89.25927734 C-0.02931915 80.49424345 -0.02931915 80.49424345 -1 72 C-4.11735122 72 -6.45537193 72.1944241 -9.44921875 72.8046875 Z M-11 208 C-12.35762732 212.21779725 -12.45527601 215.69108147 -11 219.875 C-8.21867431 222.83015854 -5.90088244 223.89474997 -2 225 C2.31354245 224.47940005 4.99776401 223.38847871 7.9375 220.25 C10.24442106 216.61485166 10.78746421 215.1998091 10 211 C7.96006092 207.3421782 6.49580738 205.33053826 3 203 C-3.38891092 202.26684629 -6.65223517 202.80389081 -11 208 Z M-97.5 297.375 C-98.99629461 300.99104532 -100.12588507 304.55663937 -101.1640625 308.32421875 C-102.00956782 311.03062597 -103.08152006 313.44787281 -104.3125 316 C-106.91246241 321.5103681 -108.76011311 327.14941346 -110.6171875 332.9387207 C-112.65500344 339.19520754 -115.06350139 345.23896073 -117.72802734 351.25439453 C-119.5826195 355.54572355 -120.53474436 359.3414013 -121 364 C-116.71 364 -112.42 364 -108 364 C-106.35 359.38 -104.7 354.76 -103 350 C-93.76 349.67 -84.52 349.34 -75 349 C-74.505 351.475 -74.505 351.475 -74 354 C-73.35103174 355.7853143 -72.66312895 357.55694608 -71.9375 359.3125 C-71.298125 360.859375 -70.65875 362.40625 -70 364 C-65.71 364 -61.42 364 -57 364 C-57.85841582 359.70792091 -59.05812746 355.92271215 -60.625 351.875 C-61.17383544 350.43644892 -61.72198471 348.99763591 -62.26953125 347.55859375 C-62.69806396 346.43493408 -62.69806396 346.43493408 -63.13525391 345.28857422 C-64.26982485 342.28590115 -65.36869694 339.27077886 -66.4675293 336.25488281 C-70.78055317 324.42615626 -75.36170085 312.70452374 -80 301 C-80.32830811 300.09556152 -80.65661621 299.19112305 -80.99487305 298.25927734 C-81.7828657 295.84380845 -81.7828657 295.84380845 -84 295 C-91.37334784 293.9960796 -91.37334784 293.9960796 -97.5 297.375 Z M-48 295 C-48.33 295.66 -48.66 296.32 -49 297 C-47.78962819 299.38142305 -47.78962819 299.38142305 -46 302 C-45.35804688 302.9796875 -44.71609375 303.959375 -44.0546875 304.96875 C-41.55487758 308.65668251 -38.99560651 312.29754796 -36.3828125 315.90625 C-35 318 -35 318 -34 321 C-33.34 321 -32.68 321 -32 321 C-31.34 322.98 -30.68 324.96 -30 327 C-29.34 327 -28.68 327 -28 327 C-29.47243143 332.37647818 -32.00974686 336.47894299 -35.0625 341.0625 C-35.5469458 341.80113281 -36.0313916 342.53976562 -36.53051758 343.30078125 C-40.39011195 349.1580234 -44.36991716 354.92800887 -48.41796875 360.65625 C-50.09324548 362.66685518 -50.09324548 362.66685518 -50 364 C-44.84588675 364.59700154 -40.13981501 364.8495562 -35 364 C-31.55082841 361.24066273 -29.94052647 357.91286485 -28 354 C-26.86380009 352.16068086 -25.71837079 350.32702158 -24.5625 348.5 C-22.56713225 345.4513153 -22.56713225 345.4513153 -22 342 C-20.68 342 -19.36 342 -18 342 C-16.47607422 343.6965332 -16.47607422 343.6965332 -15.0546875 346.05078125 C-14.53519531 346.89447266 -14.01570313 347.73816406 -13.48046875 348.60742188 C-12.95066406 349.50009766 -12.42085937 350.39277344 -11.875 351.3125 C-11.33746094 352.19357422 -10.79992187 353.07464844 -10.24609375 353.98242188 C-9.24574541 355.6226439 -8.25145934 357.26658894 -7.26513672 358.9152832 C-6.22012852 360.63726796 -5.11731459 362.32402812 -4 364 C-1.37302936 364.22137393 1.00893964 364.28162025 3.625 364.1875 C4.33140625 364.17396484 5.0378125 364.16042969 5.765625 364.14648438 C7.51074128 364.1111104 9.25546608 364.05730221 11 364 C7.64958852 356.72758452 3.31431676 350.29416619 -1.1875 343.6875 C-2.64246026 341.5477028 -4.09443358 339.40587063 -5.54296875 337.26171875 C-6.18258545 336.32287842 -6.82220215 335.38403809 -7.48120117 334.41674805 C-9 332 -9 332 -10 329 C-8.6739682 326.48479749 -7.30229012 324.18309544 -5.75 321.8125 C-5.30414551 321.11431152 -4.85829102 320.41612305 -4.39892578 319.69677734 C-0.54869212 313.71628597 3.47854562 307.85421471 7.59472656 302.05395508 C10.12768519 298.83780363 10.12768519 298.83780363 11 295 C2.63432189 294.17646832 2.63432189 294.17646832 -4.9375 296.9375 C-5.618125 297.948125 -6.29875 298.95875 -7 300 C-7.71349609 300.99966797 -7.71349609 300.99966797 -8.44140625 302.01953125 C-12.01185012 307.12911384 -15.06490499 312.50643722 -18 318 C-19.32 318 -20.64 318 -22 318 C-22.08765625 317.48308594 -22.1753125 316.96617187 -22.265625 316.43359375 C-23.2875413 313.04713709 -25.00083403 310.11389431 -26.75 307.0625 C-27.08515625 306.45470703 -27.4203125 305.84691406 -27.765625 305.22070312 C-30.03532918 301.23582477 -32.35539444 297.88102549 -36 295 C-39.11640738 294.40016253 -39.11640738 294.40016253 -42.3125 294.6875 C-43.38113281 294.73261719 -44.44976562 294.77773438 -45.55078125 294.82421875 C-46.35902344 294.88222656 -47.16726562 294.94023437 -48 295 Z M22 296 C21.9057826 298.11681317 21.88257239 300.23680758 21.88647461 302.35571289 C21.88632858 303.01910172 21.88618256 303.68249054 21.8860321 304.36598206 C21.88673119 306.56823956 21.89452335 308.77041345 21.90234375 310.97265625 C21.90420794 312.49580336 21.90563184 314.01895107 21.90663147 315.542099 C21.91045654 319.55837651 21.92028672 323.57461808 21.93133545 327.59088135 C21.94154981 331.68623366 21.94612914 335.78159176 21.95117188 339.87695312 C21.961909 347.91798528 21.97898528 355.95898817 22 364 C23.97909398 364.02686553 25.95828971 364.04633375 27.9375 364.0625 C29.03964844 364.07410156 30.14179688 364.08570313 31.27734375 364.09765625 C33.91447634 364.31262571 33.91447634 364.31262571 35 363 C35.10460557 360.99123396 35.13855822 358.97876182 35.14526367 356.96728516 C35.15164352 355.67569489 35.15802338 354.38410461 35.16459656 353.05337524 C35.16612527 351.63193804 35.16723921 350.21050034 35.16796875 348.7890625 C35.17117994 347.34036221 35.1745439 345.89166224 35.17805481 344.44296265 C35.1840531 341.40142058 35.18589404 338.35990695 35.18530273 335.31835938 C35.18520118 331.41863934 35.19884354 327.51910165 35.21607494 323.61942482 C35.22718875 320.62544923 35.22922212 317.63151776 35.22869301 314.63752365 C35.22987444 313.19979602 35.23430536 311.76206729 35.24202538 310.32435989 C35.25181039 308.31343168 35.24768682 306.30245027 35.24291992 304.29150391 C35.24505745 302.57394394 35.24505745 302.57394394 35.24723816 300.82168579 C35.20941187 297.79416497 35.20941187 297.79416497 33 295 C30.5989559 294.59785243 30.5989559 294.59785243 27.9375 294.75 C27.03902344 294.76546875 26.14054687 294.7809375 25.21484375 294.796875 C23.02740001 294.75940885 23.02740001 294.75940885 22 296 Z " fill="#0E83CA" transform="translate(288,33)"/>
<path d="M0 0 C0.33 0 0.66 0 1 0 C1.22673326 1.35120767 1.43028793 2.70630778 1.625 4.0625 C1.74101562 4.81660156 1.85703125 5.57070312 1.9765625 6.34765625 C2.00736299 9.83324546 1.0140242 12.67073873 0 16 C-0.78716265 19.81773885 -1.50368452 23.64474423 -2.21875 27.4765625 C-2.89339766 30.51922343 -3.73833543 33.16125472 -5 36 C-4.34 36 -3.68 36 -3 36 C-3 35.01 -3 34.02 -3 33 C-0.125 32.375 -0.125 32.375 3 32 C3.66 32.66 4.32 33.32 5 34 C6.32313249 34.3717651 7.6593034 34.6976401 9 35 C10.92325701 35.66884217 12.83969815 36.35750765 14.75 37.0625 C16.22726562 37.60583984 16.22726562 37.60583984 17.734375 38.16015625 C18.48203125 38.43730469 19.2296875 38.71445313 20 39 C20 39.99 20 40.98 20 42 C20.99 42 21.98 42 23 42 C23.495 41.01 23.495 41.01 24 40 C24.495 43.465 24.495 43.465 25 47 C24.29875 46.52949219 23.5975 46.05898437 22.875 45.57421875 C17.36679549 41.95945954 12.27810479 39.01373173 6 37 C5.93941406 37.59167969 5.87882812 38.18335938 5.81640625 38.79296875 C5.69072266 39.97826172 5.69072266 39.97826172 5.5625 41.1875 C5.44068359 42.35345703 5.44068359 42.35345703 5.31640625 43.54296875 C4.99227088 46.06001996 4.52467495 48.5177143 4 51 C4.59167969 51.36351562 5.18335938 51.72703125 5.79296875 52.1015625 C16.67494824 59.02484472 16.67494824 59.02484472 18.8125 65.4375 C19.04719828 68.6450431 19.1236319 71.78557059 19 75 C17.18884376 76.81115624 14.70122499 76.11995376 12.29098511 76.12442017 C11.47171539 76.12082489 10.65244568 76.11722961 9.80834961 76.11352539 C8.94988937 76.11367142 8.09142914 76.11381744 7.20695496 76.1139679 C4.35539262 76.11326847 1.50389475 76.1054747 -1.34765625 76.09765625 C-3.31920842 76.09579218 -5.29076105 76.09436822 -7.26231384 76.09336853 C-12.46226267 76.08954251 -17.66218375 76.07971152 -22.86212158 76.06866455 C-28.16393661 76.05845222 -33.4657561 76.05387129 -38.76757812 76.04882812 C-49.17839763 76.03808933 -59.58919651 76.02101191 -70 76 C-69.67 74.68 -69.34 73.36 -69 72 C-68.34 72 -67.68 72 -67 72 C-67 71.34 -67 70.68 -67 70 C-66.34 70 -65.68 70 -65 70 C-65 69.34 -65 68.68 -65 68 C-64.34 68 -63.68 68 -63 68 C-62.731875 67.401875 -62.46375 66.80375 -62.1875 66.1875 C-61.00082594 64.00152146 -59.90400887 62.58667406 -58 61 C-57.34 61 -56.68 61 -56 61 C-56 60.34 -56 59.68 -56 59 C-55.34 59 -54.68 59 -54 59 C-54 58.34 -54 57.68 -54 57 C-53.34 57 -52.68 57 -52 57 C-52 56.34 -52 55.68 -52 55 C-51.34 55 -50.68 55 -50 55 C-49.5978125 54.1028125 -49.5978125 54.1028125 -49.1875 53.1875 C-48.00082594 51.00152146 -46.90400887 49.58667406 -45 48 C-44.34 48 -43.68 48 -43 48 C-43 47.34 -43 46.68 -43 46 C-42.34 46 -41.68 46 -41 46 C-41 45.34 -41 44.68 -41 44 C-40.34 44 -39.68 44 -39 44 C-39 43.34 -39 42.68 -39 42 C-38.34 42 -37.68 42 -37 42 C-36.731875 41.401875 -36.46375 40.80375 -36.1875 40.1875 C-34.97506504 37.95406717 -34.05347727 36.50061801 -32 35 C-28.18875732 35.37301524 -26.35725241 37.2674804 -23.75 39.9375 C-23.04359375 40.64777344 -22.3371875 41.35804688 -21.609375 42.08984375 C-20 44 -20 44 -20 46 C-19.34 46 -18.68 46 -18 46 C-18 46.66 -18 47.32 -18 48 C-17.401875 48.28875 -16.80375 48.5775 -16.1875 48.875 C-14 50 -14 50 -11 52 C-10.34 52 -9.68 52 -9 52 C-8.87238281 50.73800781 -8.74476563 49.47601563 -8.61328125 48.17578125 C-8.0148467 42.80663909 -7.12779966 37.50601309 -6.1875 32.1875 C-6.01444336 31.19935303 -5.84138672 30.21120605 -5.66308594 29.19311523 C-3.93398846 19.42994545 -1.99961579 9.71090008 0 0 Z " fill="#1685CA" transform="translate(285,118)"/>
<path d="M0 0 C1.32 0 2.64 0 4 0 C4.495 0.99 4.495 0.99 5 2 C9.29 2 13.58 2 18 2 C18.495 2.99 18.495 2.99 19 4 C18.34 4.99 17.68 5.98 17 7 C16.505 6.01 16.505 6.01 16 5 C12.7 5 9.4 5 6 5 C5.67 27.11 5.34 49.22 5 72 C4.67 72 4.34 72 4 72 C3.67 52.2 3.34 32.4 3 12 C2.67 28.17 2.34 44.34 2 61 C0.515 61.495 0.515 61.495 -1 62 C-1.67435678 65.08277387 -2.12170994 68.11465584 -2.4375 71.25 C-2.623125 72.4875 -2.80875 73.725 -3 75 C-6.30019163 76.65009582 -9.90242706 75.86129379 -13.5 75.625 C-14.28503906 75.58117187 -15.07007813 75.53734375 -15.87890625 75.4921875 C-21.73938968 75.13030516 -21.73938968 75.13030516 -24 74 C-24 72.68 -24 71.36 -24 70 C-24.66 70 -25.32 70 -26 70 C-25.67 69.01 -25.34 68.02 -25 67 C-23.62437146 68.28965176 -22.29233607 69.62689293 -21 71 C-21 71.66 -21 72.32 -21 73 C-16.38 72.67 -11.76 72.34 -7 72 C-11.78978127 63.86987972 -16.92985617 56.04508953 -22.22851562 48.24023438 C-22.82986328 47.34755859 -23.43121094 46.45488281 -24.05078125 45.53515625 C-24.59387939 44.734729 -25.13697754 43.93430176 -25.6965332 43.10961914 C-27 41 -27 41 -28 38 C-26.67395275 35.48476818 -25.30250761 33.18299549 -23.75 30.8125 C-23.30342041 30.11431152 -22.85684082 29.41612305 -22.39672852 28.69677734 C-18.12899538 22.07583584 -13.66020777 15.59173128 -9.15234375 9.1328125 C-7.07226959 6.25944043 -7.07226959 6.25944043 -6 4 C-4.35 4 -2.7 4 -1 4 C-1 5.32 -1 6.64 -1 8 C-0.34 8 0.32 8 1 8 C1.66 6.02 2.32 4.04 3 2 C2.01 2 1.02 2 0 2 C0 1.34 0 0.68 0 0 Z " fill="#1A88CC" transform="translate(305,324)"/>
<path d="M0 0 C0.495 1.485 0.495 1.485 1 3 C4.71599191 3.20086443 5.77208445 3.1519437 9 1 C9.99 1.66 10.98 2.32 12 3 C12 3.66 12 4.32 12 5 C11.34 5 10.68 5 10 5 C10 5.66 10 6.32 10 7 C9.34 7 8.68 7 8 7 C8 7.66 8 8.32 8 9 C7.34 9 6.68 9 6 9 C6 9.66 6 10.32 6 11 C5.34 11 4.68 11 4 11 C4 11.66 4 12.32 4 13 C3.34 13 2.68 13 2 13 C2 13.66 2 14.32 2 15 C0.625 16.625 0.625 16.625 -1 18 C-1.66 18 -2.32 18 -3 18 C-3 18.66 -3 19.32 -3 20 C-3.66 20 -4.32 20 -5 20 C-5 20.66 -5 21.32 -5 22 C-5.66 22 -6.32 22 -7 22 C-7 22.66 -7 23.32 -7 24 C-7.66 24 -8.32 24 -9 24 C-9 24.66 -9 25.32 -9 26 C-9.66 26 -10.32 26 -11 26 C-11 26.66 -11 27.32 -11 28 C-15.60010594 31.0667373 -20.21226489 30.36853317 -25.625 30.375 C-27.20861328 30.41173828 -27.20861328 30.41173828 -28.82421875 30.44921875 C-35.54516933 30.4742037 -41.29720028 29.80884534 -47 26 C-49.96728856 21.54906717 -49.75636001 17.21812008 -49 12 C-46.48111341 8.57151548 -43.94478433 6.51310185 -40 5 C-37.26022756 4.81066319 -34.61414925 4.7229418 -31.875 4.7265625 C-30.26561797 4.70627982 -28.65624301 4.68542916 -27.046875 4.6640625 C-24.51881921 4.64143788 -21.99104313 4.62497931 -19.46289062 4.61914062 C-17.01641803 4.60962128 -14.57119305 4.57586224 -12.125 4.5390625 C-11.3707373 4.54410797 -10.61647461 4.54915344 -9.83935547 4.55435181 C-6.20700208 4.48626069 -4.35786495 4.29020785 -1.4921875 1.96630859 C-0.99976563 1.31742676 -0.50734375 0.66854492 0 0 Z " fill="#1585CA" transform="translate(194,165)"/>
<path d="M0 0 C5 5 5 5 5.125 8.125 C5.08375 9.07375 5.0425 10.0225 5 11 C6.32 11 7.64 11 9 11 C8.34 9.35 7.68 7.7 7 6 C12.28 6.33 17.56 6.66 23 7 C23 7.33 23 7.66 23 8 C22.31292969 8.10957031 21.62585938 8.21914062 20.91796875 8.33203125 C20.01691406 8.49058594 19.11585938 8.64914063 18.1875 8.8125 C17.29417969 8.96332031 16.40085937 9.11414063 15.48046875 9.26953125 C12.73407625 10.0783114 11.66320499 10.6905816 10 13 C9.35159685 15.1304552 9.35159685 15.1304552 9.1875 17.4375 C9.09855469 18.19933594 9.00960938 18.96117187 8.91796875 19.74609375 C9.0142144 22.39055769 9.54497975 23.79869517 11 26 C14.94343577 28.3196681 17.12070122 29.11922695 21.6875 28.5 C25.44054697 26.80050703 26.97037806 25.57213462 29 22 C29.52812626 17.77498989 28.80061392 14.82630457 27 11 C27.66 11 28.32 11 29 11 C31.35490728 14.53236092 31.32743705 16.24720368 31.375 20.4375 C31.40335937 21.57058594 31.43171875 22.70367187 31.4609375 23.87109375 C30.90733221 27.62904152 30.00777338 28.75219783 27 31 C23.06468732 31.91355473 19.84849313 32.38545753 16 31 C16 31.66 16 32.32 16 33 C14.2984375 33.185625 14.2984375 33.185625 12.5625 33.375 C11.386875 33.58125 10.21125 33.7875 9 34 C8.67 34.66 8.34 35.32 8 36 C9.65 36.33 11.3 36.66 13 37 C12.01 38.65 11.02 40.3 10 42 C23.86 42.33 37.72 42.66 52 43 C52 43.66 52 44.32 52 45 C46.61064933 45.09952633 41.2218439 45.17177659 35.83178711 45.21972656 C34.00161407 45.23973374 32.17150408 45.26694851 30.34155273 45.30175781 C27.69759488 45.35076003 25.05448835 45.37307761 22.41015625 45.390625 C21.20021751 45.42159271 21.20021751 45.42159271 19.96583557 45.45318604 C13.87390056 45.45554528 9.36890652 43.82312363 4 41 C4 40.34 4 39.68 4 39 C3.4225 38.7525 2.845 38.505 2.25 38.25 C-2.84142456 35.4214308 -4.83681163 32.01005093 -6.45703125 26.55859375 C-8.22862793 18.21042232 -7.26677515 11.37127464 -3 4 C-1.25 1.4375 -1.25 1.4375 0 0 Z " fill="#1B85C6" transform="translate(268,228)"/>
<path d="M0 0 C0.33 0 0.66 0 1 0 C1.22673326 1.35120767 1.43028793 2.70630778 1.625 4.0625 C1.79902344 5.19365234 1.79902344 5.19365234 1.9765625 6.34765625 C2.00736299 9.83324546 1.0140242 12.67073873 0 16 C-0.78716265 19.81773885 -1.50368452 23.64474423 -2.21875 27.4765625 C-2.89339766 30.51922343 -3.73833543 33.16125472 -5 36 C-4.34 36 -3.68 36 -3 36 C-3 35.01 -3 34.02 -3 33 C-0.125 32.375 -0.125 32.375 3 32 C3.66 32.66 4.32 33.32 5 34 C6.32313249 34.3717651 7.6593034 34.6976401 9 35 C10.92325701 35.66884217 12.83969815 36.35750765 14.75 37.0625 C15.73484375 37.42472656 16.7196875 37.78695312 17.734375 38.16015625 C18.48203125 38.43730469 19.2296875 38.71445313 20 39 C20 39.99 20 40.98 20 42 C20.99 42 21.98 42 23 42 C23.495 41.01 23.495 41.01 24 40 C24.495 43.465 24.495 43.465 25 47 C24.29875 46.52949219 23.5975 46.05898437 22.875 45.57421875 C17.36679549 41.95945954 12.27810479 39.01373173 6 37 C5.93941406 37.59167969 5.87882812 38.18335938 5.81640625 38.79296875 C5.73261719 39.58316406 5.64882813 40.37335938 5.5625 41.1875 C5.47613281 42.00863281 5.38976562 42.82976562 5.30078125 43.67578125 C5 46 5 46 4.25 48.875 C4.1675 49.57625 4.085 50.2775 4 51 C5.41666667 52.58333333 5.41666667 52.58333333 7 54 C7 55.32 7 56.64 7 58 C6.34 58 5.68 58 5 58 C5 57.34 5 56.68 5 56 C3.515 55.505 3.515 55.505 2 55 C0.8125 52.9375 0.8125 52.9375 0 51 C-0.66 51 -1.32 51 -2 51 C-2.65162109 51.73476562 -2.65162109 51.73476562 -3.31640625 52.484375 C-5.58403429 54.52576637 -6.9318138 54.34039658 -9.9375 54.25 C-10.79214844 54.23453125 -11.64679688 54.2190625 -12.52734375 54.203125 C-14.79809898 54.01658587 -16.81524914 53.62855941 -19 53 C-19 51.02 -19 49.04 -19 47 C-16.28775382 48.61268692 -13.62647188 50.24901874 -11 52 C-10.34 52 -9.68 52 -9 52 C-8.87238281 50.73800781 -8.74476563 49.47601563 -8.61328125 48.17578125 C-8.0148467 42.80663909 -7.12779966 37.50601309 -6.1875 32.1875 C-6.01444336 31.19935303 -5.84138672 30.21120605 -5.66308594 29.19311523 C-3.93398846 19.42994545 -1.99961579 9.71090008 0 0 Z " fill="#1783C7" transform="translate(285,118)"/>
<path d="M0 0 C0.495 1.485 0.495 1.485 1 3 C4.71599191 3.20086443 5.77208445 3.1519437 9 1 C9.99 1.66 10.98 2.32 12 3 C12 3.66 12 4.32 12 5 C11.34 5 10.68 5 10 5 C10 5.66 10 6.32 10 7 C9.34 7 8.68 7 8 7 C8 7.66 8 8.32 8 9 C7.34 9 6.68 9 6 9 C6 9.66 6 10.32 6 11 C5.34 11 4.68 11 4 11 C4 11.66 4 12.32 4 13 C3.34 13 2.68 13 2 13 C2 13.66 2 14.32 2 15 C0.625 16.625 0.625 16.625 -1 18 C-1.66 18 -2.32 18 -3 18 C-3 18.66 -3 19.32 -3 20 C-3.66 20 -4.32 20 -5 20 C-5 20.66 -5 21.32 -5 22 C-5.66 22 -6.32 22 -7 22 C-7 22.66 -7 23.32 -7 24 C-7.66 24 -8.32 24 -9 24 C-9 24.66 -9 25.32 -9 26 C-9.66 26 -10.32 26 -11 26 C-11 26.66 -11 27.32 -11 28 C-11.66 27.67 -12.32 27.34 -13 27 C-13.625 24.9375 -13.625 24.9375 -14 23 C-12.35 23 -10.7 23 -9 23 C-9.495 20.03 -9.495 20.03 -10 17 C-9.01 17 -8.02 17 -7 17 C-6.67 16.34 -6.34 15.68 -6 15 C-5.34 14.67 -4.68 14.34 -4 14 C-3.34 14.33 -2.68 14.66 -2 15 C-2.495 13.515 -2.495 13.515 -3 12 C-2.34 11.67 -1.68 11.34 -1 11 C-0.34 11.33 0.32 11.66 1 12 C1 11.01 1 10.02 1 9 C1.66 9 2.32 9 3 9 C2.505 7.02 2.505 7.02 2 5 C1.01 5 0.02 5 -1 5 C-1 5.66 -1 6.32 -1 7 C-2.15000488 7.0093457 -3.30000977 7.01869141 -4.48486328 7.02832031 C-8.76796632 7.06831384 -13.05035813 7.13409835 -17.33300781 7.20751953 C-19.18350053 7.23567498 -21.03411229 7.25691646 -22.88476562 7.27099609 C-25.5513988 7.2925012 -28.21660884 7.3391886 -30.8828125 7.390625 C-32.11597702 7.39246796 -32.11597702 7.39246796 -33.37405396 7.39434814 C-38.82776595 7.53215666 -41.7399078 8.56076945 -46 12 C-45.67 12.66 -45.34 13.32 -45 14 C-44.01 14 -43.02 14 -42 14 C-42.33 14.99 -42.66 15.98 -43 17 C-44.32 17 -45.64 17 -47 17 C-46.34 19.97 -45.68 22.94 -45 26 C-45.66 26 -46.32 26 -47 26 C-49.96728856 21.54906717 -49.75636001 17.21812008 -49 12 C-46.48111341 8.57151548 -43.94478433 6.51310185 -40 5 C-37.26022756 4.81066319 -34.61414925 4.7229418 -31.875 4.7265625 C-30.26561797 4.70627982 -28.65624301 4.68542916 -27.046875 4.6640625 C-24.51881921 4.64143788 -21.99104313 4.62497931 -19.46289062 4.61914062 C-17.01641803 4.60962128 -14.57119305 4.57586224 -12.125 4.5390625 C-11.3707373 4.54410797 -10.61647461 4.54915344 -9.83935547 4.55435181 C-6.20700208 4.48626069 -4.35786495 4.29020785 -1.4921875 1.96630859 C-0.99976563 1.31742676 -0.50734375 0.66854492 0 0 Z " fill="#52A0D2" transform="translate(194,165)"/>
<path d="M0 0 C0.99 0 1.98 0 3 0 C4.34117853 3.60129621 5.6715839 7.20647859 7 10.8125 C7.3815625 11.83666016 7.763125 12.86082031 8.15625 13.91601562 C8.5171875 14.89892578 8.878125 15.88183594 9.25 16.89453125 C9.75273437 18.25348511 9.75273437 18.25348511 10.265625 19.63989258 C11 22 11 22 11 25 C5.06 25 -0.88 25 -7 25 C-7 20.57429486 -6.85443634 19.08964039 -5.1875 15.3125 C-3.07011165 10.30159875 -1.46973943 5.23316312 0 0 Z " fill="#1E84C4" transform="translate(197,346)"/>
<path d="M0 0 C0.66 0 1.32 0 2 0 C3.25125922 22.6120417 3.25125922 22.6120417 3 32 C2.98743164 32.68932617 2.97486328 33.37865234 2.96191406 34.08886719 C2.75135222 44.25169891 1.86069575 54.11329039 0.0625 64.125 C-0.10733398 65.07938965 -0.27716797 66.0337793 -0.45214844 67.01708984 C-1.73891541 73.73891541 -1.73891541 73.73891541 -4 76 C-3.67 73.03 -3.34 70.06 -3 67 C-3.66 67 -4.32 67 -5 67 C-5 65.35 -5 63.7 -5 62 C-4.01 62 -3.02 62 -2 62 C-2.01160156 61.28972656 -2.02320313 60.57945312 -2.03515625 59.84765625 C-2.04417969 58.92855469 -2.05320312 58.00945312 -2.0625 57.0625 C-2.07410156 56.14597656 -2.08570313 55.22945313 -2.09765625 54.28515625 C-2 52 -2 52 -1 51 C0.51602759 40.16870732 0.11685318 29.09402879 0.0625 18.1875 C0.05747152 16.4160169 0.05291102 14.64453241 0.04882812 12.87304688 C0.0379372 8.58199613 0.02074804 4.29101394 0 0 Z " fill="#4187B9" transform="translate(463,215)"/>
<path d="M0 0 C1.20832993 0.32531708 2.41665985 0.65063416 3.66160583 0.98580933 C9.90160015 2.36223285 16.05006437 2.26425623 22.41430664 2.22705078 C23.73235291 2.22734283 25.05039917 2.22763489 26.40838623 2.22793579 C29.99663745 2.22850604 33.58475302 2.21680524 37.17297292 2.20278788 C40.93256381 2.19022549 44.69215833 2.1891057 48.45176697 2.18673706 C55.55948164 2.1805384 62.66713426 2.16414958 69.7748217 2.14403808 C77.8716028 2.12162866 85.96838696 2.110673 94.06519139 2.10064721 C110.71016382 2.0797818 127.35507397 2.04463744 144 2 C144 2.99 144 3.98 144 5 C125.96292828 4.91611588 107.92595259 4.82098835 89.88901234 4.71247292 C81.51416157 4.66234959 73.13932058 4.61590663 64.7644043 4.578125 C57.46489071 4.54518549 50.16545304 4.50534342 42.86602324 4.45720994 C39.00098003 4.43196443 35.13598705 4.4101774 31.27088356 4.39665604 C27.63227955 4.38381798 23.99384799 4.36174484 20.35533905 4.33261681 C18.38466717 4.31923653 16.41393655 4.3156229 14.44322205 4.31230164 C13.26678131 4.30113815 12.09034058 4.28997467 10.87825012 4.2784729 C9.34761287 4.27017676 9.34761287 4.27017676 7.78605366 4.26171303 C4.85455626 3.98633748 2.66257935 3.22677804 0 2 C0 1.34 0 0.68 0 0 Z " fill="#5E96BE" transform="translate(148,304)"/>
<path d="M0 0 C0.66 0 1.32 0 2 0 C2.33 22.77 2.66 45.54 3 69 C-0.00313748 70.50156874 -2.79067522 70.09281204 -6.125 70.0625 C-8.04699219 70.04896484 -8.04699219 70.04896484 -10.0078125 70.03515625 C-10.99523437 70.02355469 -11.98265625 70.01195312 -13 70 C-13 69.67 -13 69.34 -13 69 C-7.06 68.505 -7.06 68.505 -1 68 C-0.67 45.56 -0.34 23.12 0 0 Z " fill="#1A69A3" transform="translate(323,328)"/>
<path d="M0 0 C0.77561279 -0.00081573 1.55122559 -0.00163147 2.3503418 -0.00247192 C4.60214153 -0.00220439 6.85370837 0.00669801 9.10546875 0.01953125 C10.4205542 0.02702393 11.73563965 0.0345166 13.09057617 0.04223633 C16.75834746 0.18538647 20.19541826 0.60089085 23.8125 1.1875 C23.8125 1.8475 23.8125 2.5075 23.8125 3.1875 C9.9525 2.8575 -3.9075 2.5275 -18.1875 2.1875 C-18.1875 2.8475 -18.1875 3.5075 -18.1875 4.1875 C-21.12455131 4.40905127 -24.06130363 4.61524197 -27 4.8125 C-27.83337891 4.87695312 -28.66675781 4.94140625 -29.52539062 5.0078125 C-30.72905273 5.08515625 -30.72905273 5.08515625 -31.95703125 5.1640625 C-33.06461792 5.24261475 -33.06461792 5.24261475 -34.19458008 5.32275391 C-36.1875 5.1875 -36.1875 5.1875 -39.1875 3.1875 C-26.88618259 -0.91293914 -12.81408858 -0.00642616 0 0 Z " fill="#73AFD1" transform="translate(253.1875,30.8125)"/>
<path d="M0 0 C0 0.99 0 1.98 0 3 C-1.16571533 3.02505615 -2.33143066 3.0501123 -3.5324707 3.07592773 C-7.85436131 3.17004691 -12.1760929 3.27025669 -16.49780273 3.37231445 C-18.36885866 3.41564622 -20.23995369 3.45732257 -22.11108398 3.49731445 C-24.79943631 3.55505949 -27.48759215 3.61874181 -30.17578125 3.68359375 C-31.43217155 3.70866249 -31.43217155 3.70866249 -32.71394348 3.73423767 C-36.03673288 3.81914061 -38.82752018 3.94250673 -42 5 C-41.67 6.32 -41.34 7.64 -41 9 C-45.34263862 9.16702456 -48.20960634 9.12999997 -52 7 C-50.56429734 6.18432826 -49.12636566 5.37257907 -47.6875 4.5625 C-46.88699219 4.11003906 -46.08648437 3.65757812 -45.26171875 3.19140625 C-40.71179241 0.79464022 -36.48770065 0.78729987 -31.46484375 0.68359375 C-30.63038223 0.66281265 -29.79592072 0.64203156 -28.93617249 0.62062073 C-26.27003169 0.55526444 -23.60379189 0.49633469 -20.9375 0.4375 C-19.13735975 0.39429663 -17.33722932 0.35068176 -15.53710938 0.30664062 C-2.832885 0 -2.832885 0 0 0 Z " fill="#4692C0" transform="translate(321,220)"/>
<path d="M0 0 C1.56047445 0.00015913 3.12095416 0.00585397 4.68139648 0.01586914 C5.91115456 0.01799156 5.91115456 0.01799156 7.16575623 0.02015686 C9.79470406 0.0257725 12.42356797 0.0383276 15.05249023 0.05102539 C16.8304838 0.05603838 18.60847869 0.06060163 20.38647461 0.06469727 C24.75434569 0.07574701 29.12215371 0.09302208 33.48999023 0.11352539 C33.48999023 0.44352539 33.48999023 0.77352539 33.48999023 1.11352539 C32.4914502 1.12287109 31.49291016 1.1322168 30.46411133 1.1418457 C26.74003382 1.18188284 23.01677057 1.24767805 19.29321289 1.32104492 C17.68524682 1.34917544 16.07714451 1.37042928 14.46899414 1.38452148 C12.14976656 1.4060623 9.83216328 1.45276411 7.51342773 1.50415039 C6.44431656 1.50599335 6.44431656 1.50599335 5.35360718 1.50787354 C0.10673697 1.65996574 -2.50904681 2.97186638 -6.51000977 6.11352539 C-6.18000977 6.77352539 -5.85000977 7.43352539 -5.51000977 8.11352539 C-4.52000977 8.11352539 -3.53000977 8.11352539 -2.51000977 8.11352539 C-2.84000977 9.10352539 -3.17000977 10.09352539 -3.51000977 11.11352539 C-4.83000977 11.11352539 -6.15000977 11.11352539 -7.51000977 11.11352539 C-6.85000977 14.08352539 -6.19000977 17.05352539 -5.51000977 20.11352539 C-6.17000977 20.11352539 -6.83000977 20.11352539 -7.51000977 20.11352539 C-10.47017621 15.67327572 -10.28651987 11.3207108 -9.51000977 6.11352539 C-7.07250977 2.98852539 -7.07250977 2.98852539 -4.51000977 1.11352539 C-3.51000977 0.11352539 -3.51000977 0.11352539 0 0 Z " fill="#1D7CB6" transform="translate(154.510009765625,170.886474609375)"/>
<path d="M0 0 C0.66 0 1.32 0 2 0 C1.67 1.98 1.34 3.96 1 6 C0.34 6 -0.32 6 -1 6 C-1 6.66 -1 7.32 -1 8 C-2.375 9.625 -2.375 9.625 -4 11 C-4.66 11 -5.32 11 -6 11 C-6 11.66 -6 12.32 -6 13 C-6.66 13 -7.32 13 -8 13 C-8 13.66 -8 14.32 -8 15 C-8.66 15 -9.32 15 -10 15 C-10 15.66 -10 16.32 -10 17 C-10.66 17 -11.32 17 -12 17 C-12 17.66 -12 18.32 -12 19 C-12.66 19 -13.32 19 -14 19 C-14 19.66 -14 20.32 -14 21 C-14.66 20.67 -15.32 20.34 -16 20 C-16.625 17.9375 -16.625 17.9375 -17 16 C-15.35 16 -13.7 16 -12 16 C-12.33 14.02 -12.66 12.04 -13 10 C-12.01 10 -11.02 10 -10 10 C-9.67 9.34 -9.34 8.68 -9 8 C-8.34 7.67 -7.68 7.34 -7 7 C-6.34 7.33 -5.68 7.66 -5 8 C-5.33 7.01 -5.66 6.02 -6 5 C-5.34 4.67 -4.68 4.34 -4 4 C-3.34 4.33 -2.68 4.66 -2 5 C-2 4.01 -2 3.02 -2 2 C-1.34 2 -0.68 2 0 2 C0 1.34 0 0.68 0 0 Z " fill="#3890C4" transform="translate(197,172)"/>
<path d="M0 0 C1.32 0.99 2.64 1.98 4 3 C3.49890042 7.38462134 2.01704885 9.8000997 -1 13 C-1.66 13 -2.32 13 -3 13 C-3 13.66 -3 14.32 -3 15 C-3.66 15 -4.32 15 -5 15 C-5.33 15.66 -5.66 16.32 -6 17 C-6 15.68 -6 14.36 -6 13 C-5.34 13 -4.68 13 -4 13 C-4.33 11.02 -4.66 9.04 -5 7 C-5.99 6.67 -6.98 6.34 -8 6 C-6.25 4 -6.25 4 -4 2 C-2.68 2 -1.36 2 0 2 C0 1.34 0 0.68 0 0 Z " fill="#2C8CC7" transform="translate(233,131)"/>
<path d="M0 0 C1.921875 0.6484375 1.921875 0.6484375 4 2 C4.828125 4.6015625 4.828125 4.6015625 5.25 7.625 C5.39953125 8.62789063 5.5490625 9.63078125 5.703125 10.6640625 C5.85007813 11.82035156 5.85007813 11.82035156 6 13 C5.38640625 13.14308594 4.7728125 13.28617187 4.140625 13.43359375 C1.89792233 14.0270096 0.03970153 14.90730275 -2 16 C-4.125 10.375 -4.125 10.375 -3 7 C-2.34 6.34 -1.68 5.68 -1 5 C-0.35232207 2.42938689 -0.35232207 2.42938689 0 0 Z " fill="#0F82CE" transform="translate(198,351)"/>
<path d="M0 0 C19.8 0.495 19.8 0.495 40 1 C40 1.66 40 2.32 40 3 C27.13 3 14.26 3 1 3 C0.67 2.01 0.34 1.02 0 0 Z " fill="#3784B6" transform="translate(280,270)"/>
<path d="M0 0 C0.33 0 0.66 0 1 0 C2.21825857 5.9172559 2.33647378 11.85751516 2.5625 17.875 C2.60568359 18.94492188 2.64886719 20.01484375 2.69335938 21.1171875 C2.79892817 23.74467754 2.90103791 26.37225422 3 29 C2.34 29 1.68 29 1 29 C1 30.98 1 32.96 1 35 C0.67 35 0.34 35 0 35 C-1.6730738 23.4976176 -1.6730738 11.5023824 0 0 Z " fill="#4691C4" transform="translate(40,223)"/>
<path d="M0 0 C0.33 0 0.66 0 1 0 C1.27310086 7.38788406 0.50296294 14.24859216 -0.875 21.5 C-1.13603516 22.98113281 -1.13603516 22.98113281 -1.40234375 24.4921875 C-2.74330357 31.74330357 -2.74330357 31.74330357 -5 34 C-4.505 29.545 -4.505 29.545 -4 25 C-4.66 25 -5.32 25 -6 25 C-6 23.35 -6 21.7 -6 20 C-5.01 20 -4.02 20 -3 20 C-3.02320313 19.31292969 -3.04640625 18.62585938 -3.0703125 17.91796875 C-3.08835937 17.01691406 -3.10640625 16.11585938 -3.125 15.1875 C-3.14820313 14.29417969 -3.17140625 13.40085937 -3.1953125 12.48046875 C-3 10 -3 10 -1 7 C-0.60612212 4.67612053 -0.26513915 2.34206251 0 0 Z " fill="#4F99C9" transform="translate(464,257)"/>
<path d="M0 0 C3.35867712 0.75970078 6.52123658 1.87093255 9.75 3.0625 C11.22726562 3.60583984 11.22726562 3.60583984 12.734375 4.16015625 C13.48203125 4.43730469 14.2296875 4.71445313 15 5 C15 5.99 15 6.98 15 8 C15.99 8 16.98 8 18 8 C18.33 7.34 18.66 6.68 19 6 C19.33 8.31 19.66 10.62 20 13 C19.29875 12.52949219 18.5975 12.05898437 17.875 11.57421875 C12.36679549 7.95945954 7.27810479 5.01373173 1 3 C0.67 5.97 0.34 8.94 0 12 C-0.99 12 -1.98 12 -3 12 C-3.43200679 7.24792529 -1.98489083 4.21789302 0 0 Z " fill="#519AC8" transform="translate(290,152)"/>
<path d="M0 0 C1 2 1 2 0.546875 3.875 C0.28390625 4.57625 0.0209375 5.2775 -0.25 6 C-0.50265625 6.70125 -0.7553125 7.4025 -1.015625 8.125 C-2 10 -2 10 -5 12 C-5.93517401 13.74390614 -5.93517401 13.74390614 -6.5625 15.75 C-6.80871094 16.46027344 -7.05492188 17.17054688 -7.30859375 17.90234375 C-7.53675781 18.59457031 -7.76492187 19.28679687 -8 20 C-8.37125 21.093125 -8.7425 22.18625 -9.125 23.3125 C-9.41375 24.199375 -9.7025 25.08625 -10 26 C-10.33 26.99 -10.66 27.98 -11 29 C-12.32 29 -13.64 29 -15 29 C-13.11779586 20.24279757 -6.45435927 6.45435927 0 0 Z " fill="#378DC2" transform="translate(74,125)"/>
<path d="M0 0 C0.33 0 0.66 0 1 0 C1.22673326 1.35120767 1.43028793 2.70630778 1.625 4.0625 C1.74101562 4.81660156 1.85703125 5.57070312 1.9765625 6.34765625 C2.00737666 9.83479184 1.01773337 12.67020336 0 16 C-0.54647616 18.53627692 -1.06715328 21.07824355 -1.5625 23.625 C-1.93568359 25.53152344 -1.93568359 25.53152344 -2.31640625 27.4765625 C-2.54199219 28.63929688 -2.76757812 29.80203125 -3 31 C-3.59566502 34.02446815 -4.22632435 37.01582248 -5 40 C-7.42342514 32.72972457 -5.2435122 25.73344645 -3.5625 18.5 C-1.46116337 9.3080541 -1.46116337 9.3080541 0 0 Z " fill="#6BAACB" transform="translate(285,118)"/>
<path d="M0 0 C2.48659621 2.48659621 3.0343111 4.60483946 4.125 7.9375 C4.47820312 8.99839844 4.83140625 10.05929687 5.1953125 11.15234375 C6 14 6 14 6 17 C0.06 17 -5.88 17 -12 17 C-11.67 15.68 -11.34 14.36 -11 13 C-10.67 13.66 -10.34 14.32 -10 15 C-5.71 15 -1.42 15 3 15 C2.505 13.081875 2.01 11.16375 1.5 9.1875 C0.67226165 5.98001389 0 3.31544299 0 0 Z " fill="#5F9FC6" transform="translate(202,354)"/>
<path d="M0 0 C8.91 0 17.82 0 27 0 C26.67 0.99 26.34 1.98 26 3 C19.07 2.67 12.14 2.34 5 2 C4.67 2.66 4.34 3.32 4 4 C2.68 4 1.36 4 0 4 C0 2.68 0 1.36 0 0 Z " fill="#1A74AE" transform="translate(185,383)"/>
<path d="M0 0 C1.98 0 3.96 0 6 0 C6 0.66 6 1.32 6 2 C6.31478446 3.33783393 6.64587656 4.67203709 7 6 C5.86111328 6.03867187 5.86111328 6.03867187 4.69921875 6.078125 C3.70535156 6.13484375 2.71148437 6.1915625 1.6875 6.25 C0.70136719 6.29640625 -0.28476563 6.3428125 -1.30078125 6.390625 C-4.13940092 6.75970238 -4.13940092 6.75970238 -5.85546875 9.046875 C-6.23316406 9.69140625 -6.61085937 10.3359375 -7 11 C-7.04254356 9.00045254 -7.04080783 6.99958364 -7 5 C-6 4 -6 4 -3.4375 3.9375 C-2.2309375 3.9684375 -2.2309375 3.9684375 -1 4 C-0.67 2.68 -0.34 1.36 0 0 Z " fill="#2889C4" transform="translate(197,322)"/>
<path d="M0 0 C17.16 0 34.32 0 52 0 C52.495 1.98 52.495 1.98 53 4 C51.68 3.67 50.36 3.34 49 3 C49.33 2.67 49.66 2.34 50 2 C25.25 1.505 25.25 1.505 0 1 C0 0.67 0 0.34 0 0 Z " fill="#62A7D3" transform="translate(154,153)"/>
<path d="M0 0 C5.28 0.33 10.56 0.66 16 1 C16 1.33 16 1.66 16 2 C15.31292969 2.10957031 14.62585938 2.21914062 13.91796875 2.33203125 C13.01691406 2.49058594 12.11585938 2.64914063 11.1875 2.8125 C10.29417969 2.96332031 9.40085937 3.11414063 8.48046875 3.26953125 C5.73584255 4.07779125 4.6899353 4.71858734 3 7 C2.22186348 9.03341887 2.22186348 9.03341887 1.8125 11.1875 C1.544375 12.445625 1.27625 13.70375 1 15 C0.67 15 0.34 15 0 15 C-0.33 11.7 -0.66 8.4 -1 5 C-0.01 5 0.98 5 2 5 C1.34 3.35 0.68 1.7 0 0 Z " fill="#4294C9" transform="translate(275,234)"/>
<path d="M0 0 C0.99 0 1.98 0 3 0 C3 0.66 3 1.32 3 2 C17.85 2 32.7 2 48 2 C48 2.33 48 2.66 48 3 C31.83 3 15.66 3 -1 3 C-0.67 2.01 -0.34 1.02 0 0 Z " fill="#1A7FBA" transform="translate(157,150)"/>
<path d="M0 0 C3 4.22222222 3 4.22222222 3 7 C4.32 7 5.64 7 7 7 C7.33 8.32 7.66 9.64 8 11 C3.02790438 9.23570801 -1.43438061 6.6060834 -6 4 C-6 3.01 -6 2.02 -6 1 C-3 0 -3 0 0 0 Z " fill="#3F95C7" transform="translate(147,418)"/>
<path d="M0 0 C0.66 0 1.32 0 2 0 C2 0.99 2 1.98 2 3 C1.34 3 0.68 3 0 3 C0 3.66 0 4.32 0 5 C-0.66 5 -1.32 5 -2 5 C-2 5.66 -2 6.32 -2 7 C-2.66 7 -3.32 7 -4 7 C-4 7.66 -4 8.32 -4 9 C-4.66 9 -5.32 9 -6 9 C-6 9.66 -6 10.32 -6 11 C-7.375 12.625 -7.375 12.625 -9 14 C-9.66 14 -10.32 14 -11 14 C-11 13.01 -11 12.02 -11 11 C-10.34 11 -9.68 11 -9 11 C-9 9.35 -9 7.7 -9 6 C-8.360625 5.896875 -7.72125 5.79375 -7.0625 5.6875 C-6.381875 5.460625 -5.70125 5.23375 -5 5 C-4.67 4.01 -4.34 3.02 -4 2 C-2.68 2 -1.36 2 0 2 C0 1.34 0 0.68 0 0 Z " fill="#3D90C3" transform="translate(217,154)"/>
<path d="M0 0 C0.99 0.33 1.98 0.66 3 1 C1.61624869 4.83990988 -0.16309349 7.97052564 -2.5 11.3125 C-3.1084375 12.19550781 -3.716875 13.07851563 -4.34375 13.98828125 C-4.8903125 14.65214844 -5.436875 15.31601562 -6 16 C-6.66 16 -7.32 16 -8 16 C-8.33 16.99 -8.66 17.98 -9 19 C-10.125 15.25 -10.125 15.25 -9 13 C-8.01 13 -7.02 13 -6 13 C-6.33 11.35 -6.66 9.7 -7 8 C-6.34 7.67 -5.68 7.34 -5 7 C-4.01 7.33 -3.02 7.66 -2 8 C-1.855625 7.4225 -1.71125 6.845 -1.5625 6.25 C-1.04166667 4.16666667 -0.52083333 2.08333333 0 0 Z " fill="#4E97C3" transform="translate(428,355)"/>
<path d="M0 0 C0.66 0 1.32 0 2 0 C4.35490728 3.53236092 4.32743705 5.24720368 4.375 9.4375 C4.40335937 10.57058594 4.43171875 11.70367187 4.4609375 12.87109375 C4 16 4 16 2.2109375 18.42578125 C0 20 0 20 -3.75 19.75 C-4.8225 19.5025 -5.895 19.255 -7 19 C-6.01 18.34 -5.02 17.68 -4 17 C-0.46321928 14.45954713 -0.46321928 14.45954713 2 11 C2.28143104 6.77853434 1.80098121 3.82708507 0 0 Z " fill="#4D98C5" transform="translate(295,239)"/>
<path d="M0 0 C1.32 0.66 2.64 1.32 4 2 C2.515 7.445 2.515 7.445 1 13 C5.29 13 9.58 13 14 13 C14.33 12.34 14.66 11.68 15 11 C15 11.66 15 12.32 15 13 C15.66 13.33 16.32 13.66 17 14 C11.39 14 5.78 14 0 14 C-1.08791209 6.38461538 -1.08791209 6.38461538 0 3 C0 2.01 0 1.02 0 0 Z " fill="#3F8CBD" transform="translate(166,384)"/>
<path d="M0 0 C0.66 0 1.32 0 2 0 C1.34 1.65 0.68 3.3 0 5 C11.88 5 23.76 5 36 5 C36 5.33 36 5.66 36 6 C30.62485095 6.04935509 25.24983315 6.08569802 19.87451172 6.10986328 C18.04506127 6.11993484 16.21562697 6.13359276 14.38623047 6.15087891 C11.76005066 6.17507677 9.13408325 6.18647132 6.5078125 6.1953125 C5.27649094 6.21079636 5.27649094 6.21079636 4.02029419 6.22659302 C2.01210858 6.22699184 0.00444618 6.1224954 -2 6 C-2.66 5.34 -3.32 4.68 -4 4 C-3.34 4 -2.68 4 -2 4 C-2 3.34 -2 2.68 -2 2 C-1.34 2 -0.68 2 0 2 C0 1.34 0 0.68 0 0 Z " fill="#157FC2" transform="translate(220,186)"/>
<path d="M0 0 C-11.8141169 6.12583839 -11.8141169 6.12583839 -18 8 C-18.66 7.67 -19.32 7.34 -20 7 C-20 6.01 -20 5.02 -20 4 C-18.02 4 -16.04 4 -14 4 C-14 3.34 -14 2.68 -14 2 C-12.42085985 1.46658816 -10.83645613 0.94874237 -9.25 0.4375 C-8.36828125 0.14746094 -7.4865625 -0.14257812 -6.578125 -0.44140625 C-3.92165684 -1.01697435 -2.52968894 -0.89248371 0 0 Z " fill="#4A95C5" transform="translate(344,433)"/>
<path d="M0 0 C0.66 0.33 1.32 0.66 2 1 C0.125 5.75 0.125 5.75 -1 8 C-1.66 8 -2.32 8 -3 8 C-2.67 8.99 -2.34 9.98 -2 11 C-5.75 14 -5.75 14 -8 14 C-8.33 15.32 -8.66 16.64 -9 18 C-9.66 18 -10.32 18 -11 18 C-9.48103632 13.56829827 -7.07360191 9.96975924 -4.375 6.1875 C-3.95476562 5.59001953 -3.53453125 4.99253906 -3.1015625 4.37695312 C-2.07220272 2.91479435 -1.0367177 1.45695101 0 0 Z " fill="#4E99C8" transform="translate(290,342)"/>
<path d="M0 0 C3.84885956 0.55479057 5.59260518 2.24418315 8.25 5 C8.95640625 5.721875 9.6628125 6.44375 10.390625 7.1875 C12 9 12 9 12 10 C10.35 10 8.7 10 7 10 C6.71125 9.360625 6.4225 8.72125 6.125 8.0625 C5.17176549 5.84793921 5.17176549 5.84793921 3 5 C3 4.01 3 3.02 3 2 C2.34 2 1.68 2 1 2 C0.67 2.99 0.34 3.98 0 5 C-1.65 5.33 -3.3 5.66 -5 6 C-3.35 4.02 -1.7 2.04 0 0 Z " fill="#488CBB" transform="translate(253,153)"/>
<path d="M0 0 C0.99 0 1.98 0 3 0 C3 0.66 3 1.32 3 2 C8.94 1.505 8.94 1.505 15 1 C15 2.32 15 3.64 15 5 C10.38 5 5.76 5 1 5 C1 5.99 1 6.98 1 8 C0.01 8 -0.98 8 -2 8 C-1.33333333 5.33333333 -0.66666667 2.66666667 0 0 Z " fill="#378BC3" transform="translate(239,324)"/>
<path d="M0 0 C3.37452744 1.39635618 5.11638118 2.8606353 7 6 C8.18480186 9.98524263 8.08107591 13.86512864 8 18 C7.01 17.67 6.02 17.34 5 17 C4.67 13.7 4.34 10.4 4 7 C3.01 7 2.02 7 1 7 C0.67 4.69 0.34 2.38 0 0 Z " fill="#5B9AC2" transform="translate(296,175)"/>
<path d="M0 0 C0 0.99 0 1.98 0 3 C-2.93705131 3.22155127 -5.87380363 3.42774197 -8.8125 3.625 C-9.64587891 3.68945312 -10.47925781 3.75390625 -11.33789062 3.8203125 C-12.54155273 3.89765625 -12.54155273 3.89765625 -13.76953125 3.9765625 C-14.87711792 4.05511475 -14.87711792 4.05511475 -16.00708008 4.13525391 C-18 4 -18 4 -21 2 C-14.36921723 -0.21026092 -6.94880797 -0.15441795 0 0 Z " fill="#3388BD" transform="translate(235,32)"/>
<path d="M0 0 C1.32 0 2.64 0 4 0 C7.60579179 6.52476609 10.28151663 13.4794842 10 21 C7.92164967 18.92164967 7.46299799 17.87555042 6.5625 15.15625 C6.30726563 14.40472656 6.05203125 13.65320313 5.7890625 12.87890625 C5.26302083 11.29296875 4.73697917 9.70703125 4.2109375 8.12109375 C3.82808594 6.99380859 3.82808594 6.99380859 3.4375 5.84375 C3.09525391 4.81024414 3.09525391 4.81024414 2.74609375 3.75585938 C2.04048149 1.79097512 2.04048149 1.79097512 0 0 Z " fill="#5EA0C8" transform="translate(204,328)"/>
<path d="M0 0 C2.71224618 1.61268692 5.37352812 3.24901874 8 5 C8.66 5 9.32 5 10 5 C10 3.35 10 1.7 10 0 C10.99 1.32 11.98 2.64 13 4 C11.82421875 5.51953125 11.82421875 5.51953125 10 7 C7.51953125 7.07421875 7.51953125 7.07421875 4.8125 6.6875 C3.91144531 6.56761719 3.01039063 6.44773438 2.08203125 6.32421875 C1.39496094 6.21722656 0.70789063 6.11023438 0 6 C0 4.02 0 2.04 0 0 Z " fill="#398DC1" transform="translate(266,165)"/>
<path d="M0 0 C0.91007812 0.00902344 1.82015625 0.01804687 2.7578125 0.02734375 C3.45648438 0.03894531 4.15515625 0.05054687 4.875 0.0625 C5.94810858 3.33435553 5.76763102 5.49197592 4.9375 8.8125 C4.74285156 9.61171875 4.54820312 10.4109375 4.34765625 11.234375 C4.19167969 11.83765625 4.03570312 12.4409375 3.875 13.0625 C3.545 13.0625 3.215 13.0625 2.875 13.0625 C2.875 9.1025 2.875 5.1425 2.875 1.0625 C1.3590625 1.5575 1.3590625 1.5575 -0.1875 2.0625 C-3.87979911 3.13251321 -7.27748207 3.21954155 -11.125 3.0625 C-7.05343521 1.0267176 -4.61375072 -0.05915065 0 0 Z " fill="#4792C2" transform="translate(284.125,103.9375)"/>
<path d="M0 0 C0.99 0.33 1.98 0.66 3 1 C-2.445 5.455 -2.445 5.455 -8 10 C-8.66 9.67 -9.32 9.34 -10 9 C-9.6875 6.625 -9.6875 6.625 -9 4 C-5.5647952 1.70986347 -4.014669 1.82157027 0 2 C0 1.34 0 0.68 0 0 Z " fill="#4799CE" transform="translate(385,404)"/>
<path d="M0 0 C0.99 0.33 1.98 0.66 3 1 C3 2.32 3 3.64 3 5 C3.66 5 4.32 5 5 5 C5.33 5.66 5.66 6.32 6 7 C6.33 6.34 6.66 5.68 7 5 C7.66 5 8.32 5 9 5 C8.649375 5.886875 8.29875 6.77375 7.9375 7.6875 C6.98244398 11.06203126 7.02848868 12.69686152 8 16 C7.34 16.33 6.68 16.66 6 17 C4.99580363 14.5433053 3.99649499 12.08481647 3 9.625 C2.71382812 8.92632812 2.42765625 8.22765625 2.1328125 7.5078125 C0 2.2265625 0 2.2265625 0 0 Z " fill="#4292C4" transform="translate(214,350)"/>
<path d="M0 0 C1.921875 0.6484375 1.921875 0.6484375 4 2 C4.828125 4.6015625 4.828125 4.6015625 5.25 7.625 C5.39953125 8.62789063 5.5490625 9.63078125 5.703125 10.6640625 C5.80109375 11.43492187 5.8990625 12.20578125 6 13 C4.0390625 12.12890625 4.0390625 12.12890625 2 11 C1.375 8.9375 1.375 8.9375 1 7 C0.34 6.67 -0.32 6.34 -1 6 C-1.042721 4.33388095 -1.04063832 2.66617115 -1 1 C-0.67 0.67 -0.34 0.34 0 0 Z M-3 7 C-1 8 -1 8 -1 8 Z " fill="#117DC0" transform="translate(198,351)"/>
<path d="M0 0 C0.99 0.33 1.98 0.66 3 1 C3.68132451 2.66072849 4.34742127 4.327767 5 6 C5.99 6.66 6.98 7.32 8 8 C7.34 10.64 6.68 13.28 6 16 C3.50063756 13.50063756 2.96276247 11.35191992 1.875 8 C1.52179687 6.9275 1.16859375 5.855 0.8046875 4.75 C0 2 0 2 0 0 Z " fill="#4797C5" transform="translate(48,300)"/>
<path d="M0 0 C2.29013653 3.4352048 2.17842973 4.985331 2 9 C1.34 9 0.68 9 0 9 C-0.66 10.65 -1.32 12.3 -2 14 C-3.80411967 11.24075815 -4.0127245 10.11027897 -3.625 6.75 C-3.41875 5.8425 -3.2125 4.935 -3 4 C-2.34 4 -1.68 4 -1 4 C-0.67 2.68 -0.34 1.36 0 0 Z " fill="#2E90CF" transform="translate(461,199)"/>
<path d="M0 0 C0.33 0.66 0.66 1.32 1 2 C0.67 2.99 0.34 3.98 0 5 C0.66 5.33 1.32 5.66 2 6 C1.34 6 0.68 6 0 6 C-0.268125 6.598125 -0.53625 7.19625 -0.8125 7.8125 C-2.00987475 10.01819033 -3.04478984 11.43583187 -5 13 C-5.99 13 -6.98 13 -8 13 C-7.67 11.68 -7.34 10.36 -7 9 C-6.34 9 -5.68 9 -5 9 C-4.731875 8.2575 -4.46375 7.515 -4.1875 6.75 C-3.05770579 4.13363446 -1.79106798 2.19812889 0 0 Z " fill="#509BC8" transform="translate(83,112)"/>
<path d="M0 0 C0 0.66 0 1.32 0 2 C0.66 2.33 1.32 2.66 2 3 C1.67 3.99 1.34 4.98 1 6 C-1.64 5.34 -4.28 4.68 -7 4 C-7 4.66 -7 5.32 -7 6 C-8.32 6 -9.64 6 -11 6 C-11 6.66 -11 7.32 -11 8 C-11.66 8 -12.32 8 -13 8 C-11.62087597 4.59863711 -10.37388141 3.30394435 -7.0625 1.75 C-6.37285156 1.41484375 -5.68320313 1.0796875 -4.97265625 0.734375 C-3 0 -3 0 0 0 Z " fill="#3188BF" transform="translate(171,47)"/>
<path d="M0 0 C1.80411967 2.75924185 2.0127245 3.88972103 1.625 7.25 C1.41875 8.1575 1.2125 9.065 1 10 C0.34 10 -0.32 10 -1 10 C-1.33 10.66 -1.66 11.32 -2 12 C-3.04293785 8.61045199 -3.30754089 5.53672026 -3 2 C-2.01 1.34 -1.02 0.68 0 0 Z " fill="#0F7DBF" transform="translate(459,193)"/>
<path d="M0 0 C0.66 0.33 1.32 0.66 2 1 C2 1.99 2 2.98 2 4 C2.61875 4.2475 3.2375 4.495 3.875 4.75 C6.35068687 6.20628639 6.95125002 7.37812506 8 10 C-2.92 6.62 -2.92 6.62 -6 2 C-4.7934375 1.7834375 -4.7934375 1.7834375 -3.5625 1.5625 C-1.07896294 1.25864751 -1.07896294 1.25864751 0 0 Z " fill="#398CC2" transform="translate(164,427)"/>
<path d="M0 0 C1.37562854 1.28965176 2.70766393 2.62689293 4 4 C4 4.66 4 5.32 4 6 C8.62 5.67 13.24 5.34 18 5 C17.67 3.68 17.34 2.36 17 1 C17.99 1.66 18.98 2.32 20 3 C20 4.32 20 5.64 20 7 C13.73 7 7.46 7 1 7 C1 5.68 1 4.36 1 3 C0.34 3 -0.32 3 -1 3 C-0.67 2.01 -0.34 1.02 0 0 Z " fill="#5994BD" transform="translate(280,391)"/>
<path d="M0 0 C0.66 0.33 1.32 0.66 2 1 C1.67 1.66 1.34 2.32 1 3 C1.99 3.33 2.98 3.66 4 4 C2.02 6.97 0.04 9.94 -2 13 C-3.01425231 9.95724308 -3.30163331 8.16714972 -3 5 C-1.5 2.1875 -1.5 2.1875 0 0 Z " fill="#4095C9" transform="translate(245,377)"/>
<path d="M0 0 C0.99 0 1.98 0 3 0 C3.26554687 0.71027344 3.53109375 1.42054688 3.8046875 2.15234375 C4.15789062 3.07144531 4.51109375 3.99054688 4.875 4.9375 C5.22304687 5.85402344 5.57109375 6.77054687 5.9296875 7.71484375 C6.7819086 10.14941056 6.7819086 10.14941056 9 11 C8.67 12.32 8.34 13.64 8 15 C5.52733876 12.73762373 3.936134 10.42546667 2.3125 7.5 C1.65701172 6.33984375 1.65701172 6.33984375 0.98828125 5.15625 C0 3 0 3 0 0 Z " fill="#428DBC" transform="translate(64,337)"/>
<path d="M0 0 C1 3 1 3 0.4375 5.125 C-1 7 -1 7 -4.125 7.75 C-5.07375 7.8325 -6.0225 7.915 -7 8 C-7 8.99 -7 9.98 -7 11 C-8.65 11 -10.3 11 -12 11 C-8.19588166 7.08060535 -4.18423892 3.50897269 0 0 Z " fill="#4592C1" transform="translate(119,76)"/>
<path d="M0 0 C2.69204517 0.17946968 3.97905223 0.98398112 6.125 2.625 C8.46441491 5.58825889 9.15803818 8.35149878 10 12 C9.01 12.495 9.01 12.495 8 13 C6.62437146 11.71034824 5.29233607 10.37310707 4 9 C4 8.34 4 7.68 4 7 C4.66 6.67 5.32 6.34 6 6 C3.60490662 3.10067643 1.68754757 2.49831724 -2 2 C-1.34 1.34 -0.68 0.68 0 0 Z " fill="#1A7CB9" transform="translate(400,91)"/>
<path d="M0 0 C1.79341438 4.16673521 0.01173384 7.74663341 -1.4375 11.75 C-1.68048828 12.44738281 -1.92347656 13.14476562 -2.17382812 13.86328125 C-2.77310248 15.57885098 -3.38529885 17.28989715 -4 19 C-4.33 19 -4.66 19 -5 19 C-5 16.36 -5 13.72 -5 11 C-4.34 11 -3.68 11 -3 11 C-2.67 8.03 -2.34 5.06 -2 2 C-1.34 2 -0.68 2 0 2 C0 1.34 0 0.68 0 0 Z " fill="#5DA1C8" transform="translate(458,293)"/>
<path d="M0 0 C0 0.66 0 1.32 0 2 C-0.66 2 -1.32 2 -2 2 C-1.34 3.65 -0.68 5.3 0 7 C-4.34263862 7.16702456 -7.20960634 7.12999997 -11 5 C-9.54462432 4.16151196 -8.08559627 3.32936066 -6.625 2.5 C-5.81289063 2.0359375 -5.00078125 1.571875 -4.1640625 1.09375 C-2 0 -2 0 0 0 Z " fill="#348EC6" transform="translate(280,222)"/>
<path d="M0 0 C0.33 0.99 0.66 1.98 1 3 C1.66 3.33 2.32 3.66 3 4 C2.67 4.66 2.34 5.32 2 6 C0.41532272 5.71572583 -1.1677057 5.42225182 -2.75 5.125 C-3.63171875 4.96257812 -4.5134375 4.80015625 -5.421875 4.6328125 C-7.86947744 4.03203736 -9.80599857 3.22002883 -12 2 C-10.4221875 1.7834375 -10.4221875 1.7834375 -8.8125 1.5625 C-5.84539451 1.12473034 -2.93205634 0.62195134 0 0 Z " fill="#4D9ACB" transform="translate(198,440)"/>
<path d="M0 0 C1.05445313 -0.00515625 2.10890625 -0.0103125 3.1953125 -0.015625 C5.875 0.25 5.875 0.25 7.875 2.25 C6.98296875 2.29898437 6.0909375 2.34796875 5.171875 2.3984375 C4.00140625 2.47320312 2.8309375 2.54796875 1.625 2.625 C-0.11523438 2.72941406 -0.11523438 2.72941406 -1.890625 2.8359375 C-4.83194334 3.21248308 -6.62449011 3.7274123 -9.125 5.25 C-9.455 4.26 -9.785 3.27 -10.125 2.25 C-6.69875115 0.16445722 -3.97589184 -0.01953755 0 0 Z " fill="#4F98C8" transform="translate(291.125,325.75)"/>
<path d="M0 0 C1.65 0 3.3 0 5 0 C4.67 0.99 4.34 1.98 4 3 C7.3 3.33 10.6 3.66 14 4 C14 4.33 14 4.66 14 5 C7.72532201 6.0748291 3.09339169 5.88341198 -3 4 C-2.01 3.67 -1.02 3.34 0 3 C0 2.01 0 1.02 0 0 Z " fill="#2A90CB" transform="translate(256,104)"/>
<path d="M0 0 C1.32 1.32 2.64 2.64 4 4 C3.01 4.33 2.02 4.66 1 5 C0.34 4.67 -0.32 4.34 -1 4 C-1.061875 4.94875 -1.12375 5.8975 -1.1875 6.875 C-1.455625 7.90625 -1.72375 8.9375 -2 10 C-3.65 10.66 -5.3 11.32 -7 12 C-5.35 8.7 -3.7 5.4 -2 2 C-1.34 2 -0.68 2 0 2 C0 1.34 0 0.68 0 0 Z " fill="#629DC4" transform="translate(268,373)"/>
<path d="M0 0 C2.86724686 0.57344937 3.8614515 0.8614515 6 3 C4.35 3 2.7 3 1 3 C0.67 5.97 0.34 8.94 0 12 C-0.99 12 -1.98 12 -3 12 C-3.43200679 7.24792529 -1.98489083 4.21789302 0 0 Z " fill="#4594C5" transform="translate(290,152)"/>
<path d="M0 0 C1 2 1 2 0.5 4.0625 C-1 6 -1 6 -4.5 6.625 C-5.655 6.74875 -6.81 6.8725 -8 7 C-8.66 7.66 -9.32 8.32 -10 9 C-10.99 8.67 -11.98 8.34 -13 8 C-11.3990869 6.84962529 -9.79414775 5.70485184 -8.1875 4.5625 C-7.29417969 3.92441406 -6.40085938 3.28632812 -5.48046875 2.62890625 C-3 1 -3 1 0 0 Z " fill="#4F9BC8" transform="translate(143,60)"/>
<path d="M0 0 C0.33 1.32 0.66 2.64 1 4 C0.34 3.67 -0.32 3.34 -1 3 C-0.67 2.01 -0.34 1.02 0 0 Z M-3 3 C-2.01 3.33 -1.02 3.66 0 4 C-0.33 7.63 -0.66 11.26 -1 15 C-2.66905241 11.66189518 -3.8741386 8.53842155 -5 5 C-4.34 5 -3.68 5 -3 5 C-3 4.34 -3 3.68 -3 3 Z " fill="#3E91CC" transform="translate(231,377)"/>
<path d="M0 0 C1.32 0.33 2.64 0.66 4 1 C2.515 3.475 2.515 3.475 1 6 C1.99 6.33 2.98 6.66 4 7 C3.01 7.495 3.01 7.495 2 8 C-0.35981813 7.06421005 -2.69631264 6.06652192 -5 5 C-5 4.34 -5 3.68 -5 3 C-3.68 3 -2.36 3 -1 3 C-0.67 2.01 -0.34 1.02 0 0 Z " fill="#3189C1" transform="translate(277,264)"/>
<path d="M0 0 C0.66 0 1.32 0 2 0 C3.32421875 1.6796875 3.32421875 1.6796875 4.6875 3.875 C5.14511719 4.59429687 5.60273438 5.31359375 6.07421875 6.0546875 C6.37972656 6.69664062 6.68523437 7.33859375 7 8 C6.67 8.66 6.34 9.32 6 10 C5.01 10 4.02 10 3 10 C3.33 9.01 3.66 8.02 4 7 C3.01 7 2.02 7 1 7 C0.67 4.69 0.34 2.38 0 0 Z " fill="#3B8FC2" transform="translate(273,381)"/>
<path d="M0 0 C6.29 3.57 6.29 3.57 8 6 C8.1875 9.1875 8.1875 9.1875 8 12 C4.74451247 8.97704729 2.31022942 5.79537691 0 2 C0 1.34 0 0.68 0 0 Z " fill="#539BC8" transform="translate(285,374)"/>
<path d="M0 0 C0.33 0.66 0.66 1.32 1 2 C1.66 2 2.32 2 3 2 C3 2.66 3 3.32 3 4 C3.598125 4.2475 4.19625 4.495 4.8125 4.75 C7.28647521 6.16370012 8.43370255 7.65055383 10 10 C8.35 10 6.7 10 5 10 C5 9.01 5 8.02 5 7 C4.01 6.67 3.02 6.34 2 6 C1.67 5.34 1.34 4.68 1 4 C0.01 3.34 -0.98 2.68 -2 2 C-1.34 2 -0.68 2 0 2 C0 1.34 0 0.68 0 0 Z " fill="#5A9FC8" transform="translate(223,121)"/>
<path d="M0 0 C0.66 0.33 1.32 0.66 2 1 C1.40895235 5.84659077 0.02055843 9.60748167 -2 14 C-2.33 14 -2.66 14 -3 14 C-3 10.04 -3 6.08 -3 2 C-2.01 2.33 -1.02 2.66 0 3 C0 2.01 0 1.02 0 0 Z " fill="#4A95C4" transform="translate(451,311)"/>
<path d="M0 0 C0.515625 0.2475 1.03125 0.495 1.5625 0.75 C1.5625 1.41 1.5625 2.07 1.5625 2.75 C-3.54084017 4.655247 -7.90092706 6.17589023 -13.4375 5.75 C-12.921875 5.5025 -12.40625 5.255 -11.875 5 C-9.52906419 3.84177069 -9.52906419 3.84177069 -7.75390625 2.69140625 C-2.93851382 -0.30138603 -2.93851382 -0.30138603 0 0 Z " fill="#4995C4" transform="translate(306.4375,300.25)"/>
<path d="M0 0 C1.32 0 2.64 0 4 0 C4.33 2.64 4.66 5.28 5 8 C2.525 9.485 2.525 9.485 0 11 C0.185625 10.29875 0.37125 9.5975 0.5625 8.875 C1.05156976 5.66111302 0.66231558 3.16439664 0 0 Z " fill="#137CBC" transform="translate(320,272)"/>
<path d="M0 0 C0.99 0 1.98 0 3 0 C3.66 2.31 4.32 4.62 5 7 C3.68 6.67 2.36 6.34 1 6 C0.67 6.66 0.34 7.32 0 8 C-0.66 8 -1.32 8 -2 8 C-1.34 5.36 -0.68 2.72 0 0 Z " fill="#71A8CC" transform="translate(197,346)"/>
<path d="M0 0 C4.5929708 3.52127761 5.11941917 7.57747597 6 13 C5.01 13.495 5.01 13.495 4 14 C1.77343836 9.25645564 0.53851968 5.27749285 0 0 Z " fill="#5194C0" transform="translate(450,165)"/>
<path d="M0 0 C1 2 1 2 0.44140625 3.8828125 C0.15136719 4.62273437 -0.13867188 5.36265625 -0.4375 6.125 C-2.04827624 10.64249519 -2.26008961 14.23169044 -2 19 C-4.53896078 15.19155883 -4.43913585 13.5377371 -4 9 C-2.86446188 5.89455009 -1.49667348 2.94657592 0 0 Z " fill="#4B94C4" transform="translate(283,139)"/>
<path d="M0 0 C1 2 1 2 0.546875 3.875 C0.28390625 4.57625 0.0209375 5.2775 -0.25 6 C-0.62898438 7.051875 -0.62898438 7.051875 -1.015625 8.125 C-2 10 -2 10 -5 12 C-5.33 12.99 -5.66 13.98 -6 15 C-6.66 14.67 -7.32 14.34 -8 14 C-7.04661031 12.03925516 -6.0871246 10.08147348 -5.125 8.125 C-4.59132813 7.03445312 -4.05765625 5.94390625 -3.5078125 4.8203125 C-2 2 -2 2 0 0 Z " fill="#66A2C8" transform="translate(74,125)"/>
<path d="M0 0 C1.15224028 0.92961422 2.29659176 1.8690125 3.4375 2.8125 C4.07558594 3.33457031 4.71367187 3.85664062 5.37109375 4.39453125 C7 6 7 6 8 9 C8.66 9 9.32 9 10 9 C9.67 9.66 9.34 10.32 9 11 C8.34 11 7.68 11 7 11 C7 10.34 7 9.68 7 9 C6.01 9 5.02 9 4 9 C0 2.25 0 2.25 0 0 Z " fill="#4D96C4" transform="translate(408,97)"/>
<path d="M0 0 C1.32 0.66 2.64 1.32 4 2 C2.90554162 2.86657116 1.79902219 3.71792724 0.6875 4.5625 C0.07261719 5.03816406 -0.54226563 5.51382812 -1.17578125 6.00390625 C-1.77777344 6.33261719 -2.37976563 6.66132813 -3 7 C-3.99 6.67 -4.98 6.34 -6 6 C-6 5.34 -6 4.68 -6 4 C-5.01 4 -4.02 4 -3 4 C-3 3.34 -3 2.68 -3 2 C-2.01 2 -1.02 2 0 2 C0 1.34 0 0.68 0 0 Z " fill="#529AC6" transform="translate(371,413)"/>
<path d="M0 0 C4.875 4.625 4.875 4.625 6 8 C6.66 8 7.32 8 8 8 C8.33 9.32 8.66 10.64 9 12 C8.34 12 7.68 12 7 12 C7 11.34 7 10.68 7 10 C6.34 10 5.68 10 5 10 C3.2734375 8.25 3.2734375 8.25 1.375 6 C0.74335937 5.2575 0.11171875 4.515 -0.5390625 3.75 C-1.02117187 3.1725 -1.50328125 2.595 -2 2 C-1.34 1.34 -0.68 0.68 0 0 Z " fill="#5B99C2" transform="translate(95,380)"/>
<path d="M0 0 C1.98 0.99 1.98 0.99 4 2 C4 2.66 4 3.32 4 4 C4.9590625 4.433125 4.9590625 4.433125 5.9375 4.875 C8 6 8 6 9 8 C7.02 8.33 5.04 8.66 3 9 C2.01 6.03 1.02 3.06 0 0 Z " fill="#4B99C7" transform="translate(388,78)"/>
<path d="M0 0 C1.98 0 3.96 0 6 0 C3.45368965 2.97069541 0.57769851 4.4775751 -3 6 C-3.66 5.67 -4.32 5.34 -5 5 C-4.34 3.68 -3.68 2.36 -3 1 C-2.01 1.33 -1.02 1.66 0 2 C0 1.34 0 0.68 0 0 Z " fill="#64A5CC" transform="translate(352,425)"/>
<path d="M0 0 C1.32 0 2.64 0 4 0 C4.99 2.64 5.98 5.28 7 8 C6.01 8 5.02 8 4 8 C0 3.77142857 0 3.77142857 0 0 Z " fill="#4591C1" transform="translate(80,363)"/>
<path d="M0 0 C0.33 0 0.66 0 1 0 C1.33 1.98 1.66 3.96 2 6 C1.34 6 0.68 6 0 6 C0 7.98 0 9.96 0 12 C-0.66 12 -1.32 12 -2 12 C-2 13.65 -2 15.3 -2 17 C-2.99 17 -3.98 17 -5 17 C-3.99150442 13.97451327 -2.98283019 10.95051055 -1.9375 7.9375 C-1.09418136 5.29510161 -0.48147028 2.72833158 0 0 Z " fill="#64A4CA" transform="translate(320,273)"/>
<path d="M0 0 C0.66 0 1.32 0 2 0 C2 0.66 2 1.32 2 2 C2.66 2 3.32 2 4 2 C4 2.66 4 3.32 4 4 C3.01 4.495 3.01 4.495 2 5 C2.33 5.66 2.66 6.32 3 7 C0.69 7.33 -1.62 7.66 -4 8 C-2.68 5.36 -1.36 2.72 0 0 Z " fill="#3494D0" transform="translate(398,87)"/>
<path d="M0 0 C0.33 1.32 0.66 2.64 1 4 C2.32 4 3.64 4 5 4 C5 6.31 5 8.62 5 11 C4.01 11.495 4.01 11.495 3 12 C1.68 8.37 0.36 4.74 -1 1 C-0.67 0.67 -0.34 0.34 0 0 Z " fill="#4393BF" transform="translate(55,316)"/>
<path d="M0 0 C0.66 0.33 1.32 0.66 2 1 C1.75 3.375 1.75 3.375 1 6 C-1.0625 7.3125 -1.0625 7.3125 -3 8 C-3.66 7.34 -4.32 6.68 -5 6 C-3.35 4.02 -1.7 2.04 0 0 Z " fill="#4396C5" transform="translate(313,291)"/>
<path d="M0 0 C0.66 0 1.32 0 2 0 C2.2236337 1.41433206 2.42826476 2.83167618 2.625 4.25 C2.74101563 5.03890625 2.85703125 5.8278125 2.9765625 6.640625 C3.00319395 9.32152459 2.36592084 10.72694089 1 13 C0 12 0 12 -0.09765625 9.27734375 C-0.08605469 8.17519531 -0.07445312 7.07304687 -0.0625 5.9375 C-0.05347656 4.83277344 -0.04445312 3.72804687 -0.03515625 2.58984375 C-0.02355469 1.73519531 -0.01195312 0.88054687 0 0 Z " fill="#1673B1" transform="translate(41,217)"/>
<path d="M0 0 C0 3.01490557 -0.51952735 4.86864114 -1.5 7.6875 C-1.91765625 8.89986328 -1.91765625 8.89986328 -2.34375 10.13671875 C-2.5603125 10.75160156 -2.776875 11.36648438 -3 12 C-3.66 11.34 -4.32 10.68 -5 10 C-4.56414572 6.84005649 -3.32709527 3.88838382 -2 1 C-1.34 0.67 -0.68 0.34 0 0 Z " fill="#4992C2" transform="translate(184,347)"/>
<path d="M0 0 C0.66 0 1.32 0 2 0 C5.11450382 4.15267176 5.11450382 4.15267176 4.6875 7.3125 C4.460625 7.869375 4.23375 8.42625 4 9 C1.24338912 6.51015791 -0.60746455 4.79450934 -1 1 C-0.67 0.67 -0.34 0.34 0 0 Z " fill="#4490BF" transform="translate(264,256)"/>
<path d="M0 0 C0.66 0.33 1.32 0.66 2 1 C1.67 1.66 1.34 2.32 1 3 C0.34 3 -0.32 3 -1 3 C-1.33 4.65 -1.66 6.3 -2 8 C-3.65 8 -5.3 8 -7 8 C-5.38405168 5.95880212 -3.7143618 3.95927063 -2 2 C-1.34 2 -0.68 2 0 2 C0 1.34 0 0.68 0 0 Z " fill="#60A3CC" transform="translate(229,177)"/>
<path d="M0 0 C0.33 1.32 0.66 2.64 1 4 C0.34 4 -0.32 4 -1 4 C-1.33 5.32 -1.66 6.64 -2 8 C-3.65 8 -5.3 8 -7 8 C-6.02133662 6.85373678 -5.04205413 5.70800212 -4.0625 4.5625 C-3.51722656 3.92441406 -2.97195312 3.28632812 -2.41015625 2.62890625 C-1.63204305 1.73008851 -0.84063472 0.84063472 0 0 Z " fill="#4C93C5" transform="translate(102,91)"/>
<path d="M0 0 C4.72065967 1.54269924 9.41664092 3.07794619 14 5 C10.51523541 6.1615882 9.32751629 5.77669581 5.875 4.75 C4.98554688 4.49734375 4.09609375 4.2446875 3.1796875 3.984375 C2.10074219 3.49710938 2.10074219 3.49710938 1 3 C0.67 2.01 0.34 1.02 0 0 Z " fill="#76ADCF" transform="translate(328,44)"/>
<path d="M0 0 C0.99 1.32 1.98 2.64 3 4 C1.6975667 6.90542812 0.29113732 8.8092961 -2 11 C-1.85957123 9.35369672 -1.71250671 7.70795821 -1.5625 6.0625 C-1.48128906 5.14597656 -1.40007812 4.22945313 -1.31640625 3.28515625 C-1 1 -1 1 0 0 Z " fill="#3590C5" transform="translate(239,386)"/>
<path d="M0 0 C0.33 0 0.66 0 1 0 C1 1.98 1 3.96 1 6 C1.66 6 2.32 6 3 6 C2.67 8.31 2.34 10.62 2 13 C-0.39692342 9.16492253 -0.63714778 5.42679713 -1 1 C-0.67 0.67 -0.34 0.34 0 0 Z " fill="#569FCA" transform="translate(46,286)"/>
<path d="M0 0 C0.99 0 1.98 0 3 0 C2.44894091 3.9492568 1.61064629 7.34920174 0 11 C-0.33 11 -0.66 11 -1 11 C-0.67 7.37 -0.34 3.74 0 0 Z " fill="#4991C2" transform="translate(126,170)"/>
<path d="M0 0 C1.65 0.33 3.3 0.66 5 1 C4.67 2.32 4.34 3.64 4 5 C3.34 5 2.68 5 2 5 C2 5.66 2 6.32 2 7 C1.34 7 0.68 7 0 7 C-0.33 7.66 -0.66 8.32 -1 9 C-1 7.68 -1 6.36 -1 5 C-0.34 5 0.32 5 1 5 C0.67 3.35 0.34 1.7 0 0 Z " fill="#4992C2" transform="translate(228,139)"/>
<path d="M0 0 C1.67542976 0.28604898 3.34385343 0.61781233 5 1 C5.33 1.99 5.66 2.98 6 4 C5.34 4 4.68 4 4 4 C4 4.66 4 5.32 4 6 C3.01 6 2.02 6 1 6 C0.34 4.35 -0.32 2.7 -1 1 C-0.67 0.67 -0.34 0.34 0 0 Z " fill="#177EBF" transform="translate(393,85)"/>
<path d="M0 0 C0.66 0.99 1.32 1.98 2 3 C-1.3282731 4.66413655 -4.99733973 3.81867406 -8.625 3.5625 C-9.42679687 3.51029297 -10.22859375 3.45808594 -11.0546875 3.40429688 C-13.03679103 3.27451629 -15.01844499 3.13790265 -17 3 C-17 2.67 -17 2.34 -17 2 C-11.39 2 -5.78 2 0 2 C0 1.34 0 0.68 0 0 Z " fill="#1479B9" transform="translate(300,396)"/>
<path d="M0 0 C0.66 0 1.32 0 2 0 C1.34 1.65 0.68 3.3 0 5 C2.31 5 4.62 5 7 5 C7 5.33 7 5.66 7 6 C5.54207116 6.05399736 4.08357288 6.09279177 2.625 6.125 C1.81289062 6.14820313 1.00078125 6.17140625 0.1640625 6.1953125 C-2 6 -2 6 -4 4 C-3.34 4 -2.68 4 -2 4 C-2 3.34 -2 2.68 -2 2 C-1.34 2 -0.68 2 0 2 C0 1.34 0 0.68 0 0 Z " fill="#3E8EC3" transform="translate(220,186)"/>
<path d="M0 0 C1.9375 0.6875 1.9375 0.6875 4 2 C4.75 4.625 4.75 4.625 5 7 C3.68 7 2.36 7 1 7 C0.67 4.69 0.34 2.38 0 0 Z " fill="#3F8CBE" transform="translate(296,175)"/>
<path d="M0 0 C0.33 0.99 0.66 1.98 1 3 C-0.4375 5.6875 -0.4375 5.6875 -2 8 C-3.32 7.67 -4.64 7.34 -6 7 C-5.34 6.01 -4.68 5.02 -4 4 C-3.34 4 -2.68 4 -2 4 C-1.34 2.68 -0.68 1.36 0 0 Z " fill="#5096C2" transform="translate(90,104)"/>
<path d="M0 0 C-6.4 3.07692308 -6.4 3.07692308 -9.4375 2.6875 C-9.953125 2.460625 -10.46875 2.23375 -11 2 C-7.72338241 -1.27661759 -4.29690696 -1.43230232 0 0 Z " fill="#408FBE" transform="translate(344,433)"/>
<path d="M0 0 C-0.66 1.32 -1.32 2.64 -2 4 C-2.33 3.34 -2.66 2.68 -3 2 C-5.35599235 1.53248212 -5.35599235 1.53248212 -8.0625 1.375 C-8.98160156 1.30023438 -9.90070313 1.22546875 -10.84765625 1.1484375 C-11.55792969 1.09945313 -12.26820313 1.05046875 -13 1 C-13 0.67 -13 0.34 -13 0 C-4.57142857 -1.28571429 -4.57142857 -1.28571429 0 0 Z " fill="#67AED7" transform="translate(324,327)"/>
<path d="M0 0 C0 1.32 0 2.64 0 4 C-3.3 3.67 -6.6 3.34 -10 3 C-7.14414946 0.14414946 -3.95889689 0 0 0 Z " fill="#4D9BCB" transform="translate(254,325)"/>
<path d="M0 0 C0.33 0.99 0.66 1.98 1 3 C-1.40436026 6.60654039 -2.94679607 6.85452932 -7 8 C-6.02133662 6.85373678 -5.04205413 5.70800212 -4.0625 4.5625 C-3.51722656 3.92441406 -2.97195312 3.28632813 -2.41015625 2.62890625 C-1.63204305 1.73008851 -0.84063472 0.84063472 0 0 Z " fill="#4B95C6" transform="translate(202,157)"/>
<path d="M0 0 C1.99097846 2.98646769 2.94124926 5.59687262 4 9 C2.68 9.33 1.36 9.66 0 10 C0.66 9.67 1.32 9.34 2 9 C1.484375 8.2575 0.96875 7.515 0.4375 6.75 C-1 4 -1 4 -0.6875 1.6875 C-0.460625 1.130625 -0.23375 0.57375 0 0 Z " fill="#428DC0" transform="translate(444,148)"/>
<path d="M0 0 C4.875 4.625 4.875 4.625 6 8 C4.35 7.67 2.7 7.34 1 7 C0.67 4.69 0.34 2.38 0 0 Z " fill="#589CC7" transform="translate(420,110)"/>
<path d="M0 0 C2.31 0.66 4.62 1.32 7 2 C7 2.66 7 3.32 7 4 C5.68 4 4.36 4 3 4 C2.67 4.99 2.34 5.98 2 7 C2 6.01 2 5.02 2 4 C1.34 4 0.68 4 0 4 C0 2.68 0 1.36 0 0 Z " fill="#348FC8" transform="translate(219,114)"/>
<path d="M0 0 C-4.87058675 2.51926901 -8.49053291 3.10395221 -14 3 C-8.75250397 0.37625198 -5.91152367 -0.09534716 0 0 Z " fill="#5A98C0" transform="translate(287,104)"/>
<path d="M0 0 C0.66 0.33 1.32 0.66 2 1 C1 4 1 4 -0.8125 5.25 C-3 6 -3 6 -7 5 C-4.69 3.35 -2.38 1.7 0 0 Z " fill="#61A3CB" transform="translate(128,69)"/>
<path d="M0 0 C1.32 1.32 2.64 2.64 4 4 C3.34 5.32 2.68 6.64 2 8 C1.34 7.67 0.68 7.34 0 7 C0 4.69 0 2.38 0 0 Z " fill="#4594C7" transform="translate(242,335)"/>
<path d="M0 0 C0.66 0.33 1.32 0.66 2 1 C1.34 3.97 0.68 6.94 0 10 C-0.66 9.01 -1.32 8.02 -2 7 C-1.125 3.3125 -1.125 3.3125 0 0 Z " fill="#208DD1" transform="translate(261,330)"/>
<path d="M0 0 C0.99 0 1.98 0 3 0 C3.93065133 2.60582371 4.14917407 3.64198224 3.0625 6.25 C2.5365625 7.11625 2.5365625 7.11625 2 8 C1.34 7.67 0.68 7.34 0 7 C0 4.69 0 2.38 0 0 Z " fill="#2992CC" transform="translate(274,250)"/>
<path d="M0 0 C0.99 0.33 1.98 0.66 3 1 C0.03 3.475 0.03 3.475 -3 6 C-3.33 5.01 -3.66 4.02 -4 3 C-4.66 2.67 -5.32 2.34 -6 2 C-4.02 2 -2.04 2 0 2 C0 1.34 0 0.68 0 0 Z " fill="#63A3CD" transform="translate(385,404)"/>
<path d="M0 0 C0.99 0 1.98 0 3 0 C1.8141763 3.37503669 0.72426311 5.64722731 -2 8 C-2 6.02 -2 4.04 -2 2 C-1.34 2 -0.68 2 0 2 C0 1.34 0 0.68 0 0 Z " fill="#579BC8" transform="translate(253,369)"/>
<path d="M0 0 C0.33 0 0.66 0 1 0 C1 3.3 1 6.6 1 10 C1.99 10.33 2.98 10.66 4 11 C4 11.99 4 12.98 4 14 C3.34 14 2.68 14 2 14 C-0.28062828 10.57905758 -0.21925007 9.31812778 -0.125 5.3125 C-0.10695312 4.31863281 -0.08890625 3.32476562 -0.0703125 2.30078125 C-0.04710937 1.54152344 -0.02390625 0.78226563 0 0 Z " fill="#659DBD" transform="translate(145,177)"/>
<path d="M0 0 C2.0625 2.125 2.0625 2.125 4 5 C3.75 8.3125 3.75 8.3125 3 11 C2.67 11 2.34 11 2 11 C0.57741188 7.17679443 -0.24042276 4.08718695 0 0 Z " fill="#5593C1" transform="translate(317,173)"/>
<path d="M0 0 C0.66 0 1.32 0 2 0 C2 0.66 2 1.32 2 2 C3.65 2.33 5.3 2.66 7 3 C6.67 4.65 6.34 6.3 6 8 C4.5 6.625 4.5 6.625 3 5 C3 4.34 3 3.68 3 3 C2.34 3 1.68 3 1 3 C0.67 2.01 0.34 1.02 0 0 Z " fill="#5599C6" transform="translate(310,165)"/>
<path d="M0 0 C0.66 0 1.32 0 2 0 C1.125 4.75 1.125 4.75 0 7 C-0.99 6.67 -1.98 6.34 -3 6 C-2.01 4.02 -1.02 2.04 0 0 Z " fill="#4493C0" transform="translate(65,140)"/>
<path d="M0 0 C7.57142857 3 7.57142857 3 10 6 C8.35 6 6.7 6 5 6 C5 5.34 5 4.68 5 4 C4.34 4 3.68 4 3 4 C3 3.34 3 2.68 3 2 C2.01 2 1.02 2 0 2 C0 1.34 0 0.68 0 0 Z " fill="#5D98C5" transform="translate(358,58)"/>
<path d="M0 0 C0 1.65 0 3.3 0 5 C-0.66 5 -1.32 5 -2 5 C-2 6.98 -2 8.96 -2 11 C-2.33 11 -2.66 11 -3 11 C-4.34965035 4.61983471 -4.34965035 4.61983471 -2.625 1.5625 C-1 0 -1 0 0 0 Z " fill="#0E7BC1" transform="translate(174,369)"/>
<path d="M0 0 C-0.99 1.485 -0.99 1.485 -2 3 C-2 2.34 -2 1.68 -2 1 C-2.99 1.33 -3.98 1.66 -5 2 C-7.3406065 1.72230092 -9.67624308 1.39460023 -12 1 C-12 0.67 -12 0.34 -12 0 C-7.6835078 -0.76173392 -4.25566547 -1.16063604 0 0 Z " fill="#107ABB" transform="translate(304,306)"/>
<path d="M0 0 C1.65 0 3.3 0 5 0 C5 0.99 5 1.98 5 3 C4.34 3 3.68 3 3 3 C3 3.66 3 4.32 3 5 C2.34 4.67 1.68 4.34 1 4 C0.375 1.9375 0.375 1.9375 0 0 Z " fill="#3E95C7" transform="translate(180,188)"/>
<path d="M0 0 C0.66 0.33 1.32 0.66 2 1 C1.47731534 3.76276177 0.89130413 6.3260876 0 9 C-0.66 9 -1.32 9 -2 9 C-1.34 6.03 -0.68 3.06 0 0 Z " fill="#4C91BE" transform="translate(51,171)"/>
<path d="M0 0 C0.66 0 1.32 0 2 0 C2 0.99 2 1.98 2 3 C1.34 3 0.68 3 0 3 C0 3.66 0 4.32 0 5 C-0.66 5 -1.32 5 -2 5 C-2.33 5.66 -2.66 6.32 -3 7 C-3.33 5.35 -3.66 3.7 -4 2 C-2.68 2 -1.36 2 0 2 C0 1.34 0 0.68 0 0 Z " fill="#5D9CC4" transform="translate(217,154)"/>
<path d="M0 0 C0.33 0.99 0.66 1.98 1 3 C1.66 3 2.32 3 3 3 C3 3.66 3 4.32 3 5 C1.35 5.66 -0.3 6.32 -2 7 C-1.125 1.125 -1.125 1.125 0 0 Z " fill="#1379BC" transform="translate(220,118)"/>
<path d="M0 0 C1.9375 0.75 1.9375 0.75 3.9375 2.75 C0.17125329 4.00541557 -1.43438934 3.12061958 -5.0625 1.75 C-2.0625 -0.25 -2.0625 -0.25 0 0 Z " fill="#3C93CA" transform="translate(181.0625,43.25)"/>
<path d="M0 0 C2 1.8125 2 1.8125 4 4 C4 4.99 4 5.98 4 7 C3.01 7 2.02 7 1 7 C1 5.68 1 4.36 1 3 C0.34 3 -0.32 3 -1 3 C-0.67 2.01 -0.34 1.02 0 0 Z " fill="#438FBF" transform="translate(280,391)"/>
<path d="M0 0 C0.66 0.33 1.32 0.66 2 1 C1.8125 2.875 1.8125 2.875 1 5 C-1.5625 6.25 -1.5625 6.25 -4 7 C-2.68 4.69 -1.36 2.38 0 0 Z " fill="#3D8ABA" transform="translate(265,378)"/>
<path d="M0 0 C1.9375 0.625 1.9375 0.625 4 2 C4.75 5.125 4.75 5.125 5 8 C2.27573689 5.64722731 1.1858237 3.37503669 0 0 Z " fill="#63A2C9" transform="translate(72,352)"/>
<path d="M0 0 C1.32 0 2.64 0 4 0 C4.66 1.65 5.32 3.3 6 5 C5.01 5.33 4.02 5.66 3 6 C3 4.68 3 3.36 3 2 C2.01 2 1.02 2 0 2 C0 1.34 0 0.68 0 0 Z " fill="#2586C1" transform="translate(305,324)"/>
<path d="M0 0 C0 0.99 0 1.98 0 3 C-2.375 4.75 -2.375 4.75 -5 6 C-5.66 5.67 -6.32 5.34 -7 5 C-2.25 0 -2.25 0 0 0 Z " fill="#5D9DC6" transform="translate(153,171)"/>
<path d="M0 0 C0.66 0.99 1.32 1.98 2 3 C1.01 3 0.02 3 -1 3 C-1 3.99 -1 4.98 -1 6 C-2.65 6 -4.3 6 -6 6 C-4 4 -2 2 0 0 Z " fill="#599BC3" transform="translate(113,81)"/>
<path d="M0 0 C0.33 0.66 0.66 1.32 1 2 C0.34 2 -0.32 2 -1 2 C-1.33 3.32 -1.66 4.64 -2 6 C-3.32 5.01 -4.64 4.02 -6 3 C-4.02 2.01 -2.04 1.02 0 0 Z " fill="#4B97C5" transform="translate(150,56)"/>
<path d="M0 0 C-0.33 0.66 -0.66 1.32 -1 2 C-3.875 2.75 -3.875 2.75 -7 3 C-7.99 2.34 -8.98 1.68 -10 1 C-6.52674819 -0.1577506 -3.63932552 -0.06866652 0 0 Z " fill="#7AB3D6" transform="translate(224,33)"/>
</svg>
